<mxfile host="Electron" agent="Mozilla/5.0 (Windows NT 10.0; Win64; x64) AppleWebKit/537.36 (KHTML, like Gecko) draw.io/26.0.16 Chrome/132.0.6834.196 Electron/34.2.0 Safari/537.36" version="26.0.16" pages="4">
  <diagram name="Object Model" id="3pYfbB4rxcqh9xcf1mdR">
    <mxGraphModel dx="5219" dy="3952" grid="1" gridSize="10" guides="1" tooltips="1" connect="1" arrows="1" fold="1" page="1" pageScale="1" pageWidth="827" pageHeight="1169" math="0" shadow="0">
      <root>
        <mxCell id="0" />
        <mxCell id="1" parent="0" />
        <mxCell id="5Plw_AftQ2re015KuwXk-1" value="&lt;font style=&quot;font-size: 20px;&quot;&gt;Quest&lt;/font&gt;" style="rounded=1;whiteSpace=wrap;html=1;movable=0;resizable=0;rotatable=0;deletable=0;editable=0;locked=1;connectable=0;" vertex="1" parent="1">
          <mxGeometry x="600" y="40" width="160" height="80" as="geometry" />
        </mxCell>
        <mxCell id="5Plw_AftQ2re015KuwXk-2" value="&lt;font style=&quot;font-size: 20px;&quot;&gt;Quest Prerequisite&lt;/font&gt;" style="rounded=1;whiteSpace=wrap;html=1;movable=0;resizable=0;rotatable=0;deletable=0;editable=0;locked=1;connectable=0;" vertex="1" parent="1">
          <mxGeometry x="880" y="40" width="160" height="80" as="geometry" />
        </mxCell>
        <mxCell id="5Plw_AftQ2re015KuwXk-3" value="&lt;font style=&quot;font-size: 20px;&quot;&gt;Quest Rewad&lt;/font&gt;" style="rounded=1;whiteSpace=wrap;html=1;movable=0;resizable=0;rotatable=0;deletable=0;editable=0;locked=1;connectable=0;" vertex="1" parent="1">
          <mxGeometry x="1160" y="40" width="160" height="80" as="geometry" />
        </mxCell>
        <mxCell id="5Plw_AftQ2re015KuwXk-4" value="&lt;font style=&quot;font-size: 20px;&quot;&gt;Quest Task&lt;/font&gt;" style="rounded=1;whiteSpace=wrap;html=1;movable=0;resizable=0;rotatable=0;deletable=0;editable=0;locked=1;connectable=0;" vertex="1" parent="1">
          <mxGeometry x="320" y="40" width="160" height="80" as="geometry" />
        </mxCell>
        <mxCell id="5Plw_AftQ2re015KuwXk-5" value="&lt;font style=&quot;font-size: 16px;&quot;&gt;Shooting Cans,&lt;/font&gt;&lt;div&gt;&lt;font style=&quot;font-size: 16px;&quot;&gt;Yes, Yes,&lt;/font&gt;&lt;/div&gt;&lt;div&gt;&lt;font style=&quot;font-size: 16px;&quot;&gt;Intial&lt;/font&gt;&lt;/div&gt;" style="ellipse;whiteSpace=wrap;html=1;movable=0;resizable=0;rotatable=0;deletable=0;editable=0;locked=1;connectable=0;" vertex="1" parent="1">
          <mxGeometry x="600" y="200" width="160" height="120" as="geometry" />
        </mxCell>
        <mxCell id="5Plw_AftQ2re015KuwXk-6" value="&lt;span style=&quot;font-size: 16px;&quot;&gt;Introduction,&lt;/span&gt;&lt;div&gt;&lt;span style=&quot;font-size: 16px;&quot;&gt;Yes, No,&lt;/span&gt;&lt;/div&gt;&lt;div&gt;&lt;span style=&quot;font-size: 16px;&quot;&gt;Unlocked&lt;/span&gt;&lt;/div&gt;" style="ellipse;whiteSpace=wrap;html=1;movable=0;resizable=0;rotatable=0;deletable=0;editable=0;locked=1;connectable=0;" vertex="1" parent="1">
          <mxGeometry x="600" y="400" width="160" height="120" as="geometry" />
        </mxCell>
        <mxCell id="5Plw_AftQ2re015KuwXk-7" value="&lt;span style=&quot;font-size: 16px;&quot;&gt;PMC Level 26&lt;/span&gt;" style="ellipse;whiteSpace=wrap;html=1;movable=0;resizable=0;rotatable=0;deletable=0;editable=0;locked=1;connectable=0;" vertex="1" parent="1">
          <mxGeometry x="880" y="600" width="160" height="120" as="geometry" />
        </mxCell>
        <mxCell id="5Plw_AftQ2re015KuwXk-8" value="&lt;span style=&quot;font-size: 16px;&quot;&gt;Rigged Game,&lt;/span&gt;&lt;div&gt;&lt;span style=&quot;font-size: 16px;&quot;&gt;No, No,&lt;/span&gt;&lt;/div&gt;&lt;div&gt;&lt;span style=&quot;font-size: 16px;&quot;&gt;Locked&lt;/span&gt;&lt;/div&gt;" style="ellipse;whiteSpace=wrap;html=1;movable=0;resizable=0;rotatable=0;deletable=0;editable=0;locked=1;connectable=0;" vertex="1" parent="1">
          <mxGeometry x="600" y="600" width="160" height="120" as="geometry" />
        </mxCell>
        <mxCell id="5Plw_AftQ2re015KuwXk-9" value="&lt;span style=&quot;font-size: 16px;&quot;&gt;Attention Level 5&lt;/span&gt;" style="ellipse;whiteSpace=wrap;html=1;movable=0;resizable=0;rotatable=0;deletable=0;editable=0;locked=1;connectable=0;" vertex="1" parent="1">
          <mxGeometry x="880" y="400" width="160" height="120" as="geometry" />
        </mxCell>
        <mxCell id="5Plw_AftQ2re015KuwXk-10" value="" style="endArrow=none;html=1;rounded=0;exitX=1;exitY=0.5;exitDx=0;exitDy=0;entryX=0;entryY=0.5;entryDx=0;entryDy=0;movable=0;resizable=0;rotatable=0;deletable=0;editable=0;locked=1;connectable=0;" edge="1" parent="1" source="5Plw_AftQ2re015KuwXk-6" target="5Plw_AftQ2re015KuwXk-9">
          <mxGeometry width="50" height="50" relative="1" as="geometry">
            <mxPoint x="1030" y="490" as="sourcePoint" />
            <mxPoint x="1080" y="440" as="targetPoint" />
          </mxGeometry>
        </mxCell>
        <mxCell id="5Plw_AftQ2re015KuwXk-11" value="" style="endArrow=none;html=1;rounded=0;exitX=1;exitY=0.5;exitDx=0;exitDy=0;entryX=0;entryY=0.5;entryDx=0;entryDy=0;movable=0;resizable=0;rotatable=0;deletable=0;editable=0;locked=1;connectable=0;" edge="1" parent="1" source="5Plw_AftQ2re015KuwXk-8" target="5Plw_AftQ2re015KuwXk-9">
          <mxGeometry width="50" height="50" relative="1" as="geometry">
            <mxPoint x="1030" y="490" as="sourcePoint" />
            <mxPoint x="1080" y="440" as="targetPoint" />
          </mxGeometry>
        </mxCell>
        <mxCell id="5Plw_AftQ2re015KuwXk-12" value="" style="endArrow=none;html=1;rounded=0;entryX=1;entryY=0.5;entryDx=0;entryDy=0;exitX=0;exitY=0.5;exitDx=0;exitDy=0;movable=0;resizable=0;rotatable=0;deletable=0;editable=0;locked=1;connectable=0;" edge="1" parent="1" source="5Plw_AftQ2re015KuwXk-7" target="5Plw_AftQ2re015KuwXk-8">
          <mxGeometry width="50" height="50" relative="1" as="geometry">
            <mxPoint x="1170" y="510" as="sourcePoint" />
            <mxPoint x="1170" y="400" as="targetPoint" />
          </mxGeometry>
        </mxCell>
        <mxCell id="5Plw_AftQ2re015KuwXk-13" value="&lt;span style=&quot;font-size: 16px;&quot;&gt;Unlocks M995,&lt;/span&gt;&lt;div&gt;&lt;span style=&quot;font-size: 16px;&quot;&gt;Trade&lt;/span&gt;&lt;/div&gt;" style="ellipse;whiteSpace=wrap;html=1;movable=0;resizable=0;rotatable=0;deletable=0;editable=0;locked=1;connectable=0;" vertex="1" parent="1">
          <mxGeometry x="1160" y="200" width="160" height="120" as="geometry" />
        </mxCell>
        <mxCell id="5Plw_AftQ2re015KuwXk-14" value="&lt;span style=&quot;font-size: 16px;&quot;&gt;Get 120 M80 bullets&lt;/span&gt;" style="ellipse;whiteSpace=wrap;html=1;movable=0;resizable=0;rotatable=0;deletable=0;editable=0;locked=1;connectable=0;" vertex="1" parent="1">
          <mxGeometry x="1160" y="400" width="160" height="120" as="geometry" />
        </mxCell>
        <mxCell id="5Plw_AftQ2re015KuwXk-15" value="&lt;span style=&quot;font-size: 16px;&quot;&gt;Get a Ammo-case&lt;/span&gt;" style="ellipse;whiteSpace=wrap;html=1;movable=0;resizable=0;rotatable=0;deletable=0;editable=0;locked=1;connectable=0;" vertex="1" parent="1">
          <mxGeometry x="1160" y="600" width="160" height="120" as="geometry" />
        </mxCell>
        <mxCell id="5Plw_AftQ2re015KuwXk-16" value="" style="endArrow=none;html=1;rounded=0;exitX=1;exitY=0.5;exitDx=0;exitDy=0;entryX=0;entryY=0.5;entryDx=0;entryDy=0;movable=0;resizable=0;rotatable=0;deletable=0;editable=0;locked=1;connectable=0;" edge="1" parent="1" source="5Plw_AftQ2re015KuwXk-5" target="5Plw_AftQ2re015KuwXk-13">
          <mxGeometry width="50" height="50" relative="1" as="geometry">
            <mxPoint x="1030" y="490" as="sourcePoint" />
            <mxPoint x="1080" y="440" as="targetPoint" />
          </mxGeometry>
        </mxCell>
        <mxCell id="5Plw_AftQ2re015KuwXk-17" value="" style="endArrow=none;html=1;rounded=0;exitX=1;exitY=0.5;exitDx=0;exitDy=0;entryX=0;entryY=0.5;entryDx=0;entryDy=0;movable=0;resizable=0;rotatable=0;deletable=0;editable=0;locked=1;connectable=0;" edge="1" parent="1" source="5Plw_AftQ2re015KuwXk-6" target="5Plw_AftQ2re015KuwXk-14">
          <mxGeometry width="50" height="50" relative="1" as="geometry">
            <mxPoint x="1030" y="490" as="sourcePoint" />
            <mxPoint x="1070" y="320" as="targetPoint" />
            <Array as="points">
              <mxPoint x="840" y="360" />
              <mxPoint x="1080" y="360" />
            </Array>
          </mxGeometry>
        </mxCell>
        <mxCell id="5Plw_AftQ2re015KuwXk-18" value="" style="endArrow=none;html=1;rounded=0;exitX=1;exitY=0.5;exitDx=0;exitDy=0;entryX=0;entryY=0.5;entryDx=0;entryDy=0;movable=0;resizable=0;rotatable=0;deletable=0;editable=0;locked=1;connectable=0;" edge="1" parent="1" source="5Plw_AftQ2re015KuwXk-8" target="5Plw_AftQ2re015KuwXk-15">
          <mxGeometry width="50" height="50" relative="1" as="geometry">
            <mxPoint x="1030" y="490" as="sourcePoint" />
            <mxPoint x="1080" y="440" as="targetPoint" />
            <Array as="points">
              <mxPoint x="800" y="760" />
              <mxPoint x="1080" y="760" />
            </Array>
          </mxGeometry>
        </mxCell>
        <mxCell id="5Plw_AftQ2re015KuwXk-19" value="&lt;span style=&quot;font-size: 16px;&quot;&gt;Unlocks Pilgrim,&lt;/span&gt;&lt;div&gt;&lt;span style=&quot;font-size: 16px;&quot;&gt;Crafting&lt;/span&gt;&lt;/div&gt;" style="ellipse;whiteSpace=wrap;html=1;movable=0;resizable=0;rotatable=0;deletable=0;editable=0;locked=1;connectable=0;" vertex="1" parent="1">
          <mxGeometry x="1160" y="800" width="160" height="120" as="geometry" />
        </mxCell>
        <mxCell id="5Plw_AftQ2re015KuwXk-20" value="" style="endArrow=none;html=1;rounded=0;exitX=0.5;exitY=1;exitDx=0;exitDy=0;entryX=0;entryY=0.5;entryDx=0;entryDy=0;movable=0;resizable=0;rotatable=0;deletable=0;editable=0;locked=1;connectable=0;" edge="1" parent="1" source="5Plw_AftQ2re015KuwXk-8" target="5Plw_AftQ2re015KuwXk-19">
          <mxGeometry width="50" height="50" relative="1" as="geometry">
            <mxPoint x="1030" y="590" as="sourcePoint" />
            <mxPoint x="1080" y="540" as="targetPoint" />
            <Array as="points">
              <mxPoint x="760" y="800" />
              <mxPoint x="1080" y="800" />
            </Array>
          </mxGeometry>
        </mxCell>
        <mxCell id="5Plw_AftQ2re015KuwXk-21" value="&lt;font style=&quot;font-size: 16px;&quot;&gt;Kill 5 scavs in&lt;/font&gt;&lt;div&gt;&lt;font style=&quot;font-size: 16px;&quot;&gt;Doorms&lt;/font&gt;&lt;/div&gt;" style="ellipse;whiteSpace=wrap;html=1;movable=0;resizable=0;rotatable=0;deletable=0;editable=0;locked=1;connectable=0;" vertex="1" parent="1">
          <mxGeometry x="320" y="200" width="160" height="120" as="geometry" />
        </mxCell>
        <mxCell id="5Plw_AftQ2re015KuwXk-22" value="&lt;span style=&quot;font-size: 16px;&quot;&gt;Find all Extractions&lt;/span&gt;&lt;div&gt;&lt;span style=&quot;font-size: 16px;&quot;&gt;on Factory&lt;/span&gt;&lt;/div&gt;" style="ellipse;whiteSpace=wrap;html=1;movable=0;resizable=0;rotatable=0;deletable=0;editable=0;locked=1;connectable=0;" vertex="1" parent="1">
          <mxGeometry x="320" y="800" width="160" height="120" as="geometry" />
        </mxCell>
        <mxCell id="5Plw_AftQ2re015KuwXk-23" value="&lt;span style=&quot;font-size: 16px;&quot;&gt;Find Jaegers letter&lt;/span&gt;" style="ellipse;whiteSpace=wrap;html=1;movable=0;resizable=0;rotatable=0;deletable=0;editable=0;locked=1;connectable=0;" vertex="1" parent="1">
          <mxGeometry x="320" y="600" width="160" height="120" as="geometry" />
        </mxCell>
        <mxCell id="5Plw_AftQ2re015KuwXk-24" value="&lt;span style=&quot;font-size: 16px;&quot;&gt;Mark Trucks on&lt;/span&gt;&lt;div&gt;&lt;span style=&quot;font-size: 16px;&quot;&gt;Interchange&lt;/span&gt;&lt;/div&gt;" style="ellipse;whiteSpace=wrap;html=1;movable=0;resizable=0;rotatable=0;deletable=0;editable=0;locked=1;connectable=0;" vertex="1" parent="1">
          <mxGeometry x="320" y="400" width="160" height="120" as="geometry" />
        </mxCell>
        <mxCell id="5Plw_AftQ2re015KuwXk-25" value="" style="endArrow=none;html=1;rounded=0;exitX=1;exitY=0.5;exitDx=0;exitDy=0;entryX=0;entryY=0.5;entryDx=0;entryDy=0;movable=0;resizable=0;rotatable=0;deletable=0;editable=0;locked=1;connectable=0;" edge="1" parent="1" source="5Plw_AftQ2re015KuwXk-21" target="5Plw_AftQ2re015KuwXk-5">
          <mxGeometry width="50" height="50" relative="1" as="geometry">
            <mxPoint x="670" y="660" as="sourcePoint" />
            <mxPoint x="720" y="610" as="targetPoint" />
          </mxGeometry>
        </mxCell>
        <mxCell id="5Plw_AftQ2re015KuwXk-26" value="" style="endArrow=none;html=1;rounded=0;exitX=0;exitY=0.5;exitDx=0;exitDy=0;entryX=1;entryY=0.5;entryDx=0;entryDy=0;movable=0;resizable=0;rotatable=0;deletable=0;editable=0;locked=1;connectable=0;" edge="1" parent="1" source="5Plw_AftQ2re015KuwXk-5" target="5Plw_AftQ2re015KuwXk-24">
          <mxGeometry width="50" height="50" relative="1" as="geometry">
            <mxPoint x="500" y="770" as="sourcePoint" />
            <mxPoint x="720" y="610" as="targetPoint" />
          </mxGeometry>
        </mxCell>
        <mxCell id="5Plw_AftQ2re015KuwXk-27" value="" style="endArrow=none;html=1;rounded=0;entryX=0;entryY=0.5;entryDx=0;entryDy=0;exitX=1;exitY=0.5;exitDx=0;exitDy=0;movable=0;resizable=0;rotatable=0;deletable=0;editable=0;locked=1;connectable=0;" edge="1" parent="1" source="5Plw_AftQ2re015KuwXk-23" target="5Plw_AftQ2re015KuwXk-6">
          <mxGeometry width="50" height="50" relative="1" as="geometry">
            <mxPoint x="670" y="660" as="sourcePoint" />
            <mxPoint x="720" y="610" as="targetPoint" />
          </mxGeometry>
        </mxCell>
        <mxCell id="5Plw_AftQ2re015KuwXk-28" value="" style="endArrow=none;html=1;rounded=0;entryX=0;entryY=0.5;entryDx=0;entryDy=0;exitX=1;exitY=0.5;exitDx=0;exitDy=0;movable=0;resizable=0;rotatable=0;deletable=0;editable=0;locked=1;connectable=0;" edge="1" parent="1" source="5Plw_AftQ2re015KuwXk-22" target="5Plw_AftQ2re015KuwXk-8">
          <mxGeometry width="50" height="50" relative="1" as="geometry">
            <mxPoint x="670" y="660" as="sourcePoint" />
            <mxPoint x="720" y="610" as="targetPoint" />
          </mxGeometry>
        </mxCell>
        <mxCell id="5Plw_AftQ2re015KuwXk-29" value="&lt;font style=&quot;font-size: 20px;&quot;&gt;Marker&lt;/font&gt;" style="rounded=1;whiteSpace=wrap;html=1;movable=0;resizable=0;rotatable=0;deletable=0;editable=0;locked=1;connectable=0;" vertex="1" parent="1">
          <mxGeometry x="1561" y="40" width="160" height="80" as="geometry" />
        </mxCell>
        <mxCell id="5Plw_AftQ2re015KuwXk-30" value="" style="endArrow=none;html=1;rounded=0;strokeWidth=7;movable=0;resizable=0;rotatable=0;deletable=0;editable=0;locked=1;connectable=0;" edge="1" parent="1">
          <mxGeometry width="50" height="50" relative="1" as="geometry">
            <mxPoint x="1440" y="1120" as="sourcePoint" />
            <mxPoint x="1440" y="40" as="targetPoint" />
          </mxGeometry>
        </mxCell>
        <mxCell id="5Plw_AftQ2re015KuwXk-31" value="&lt;font style=&quot;font-size: 20px;&quot;&gt;Trader&lt;/font&gt;" style="rounded=1;whiteSpace=wrap;html=1;movable=0;resizable=0;rotatable=0;deletable=0;editable=0;locked=1;connectable=0;" vertex="1" parent="1">
          <mxGeometry x="40" y="40" width="160" height="80" as="geometry" />
        </mxCell>
        <mxCell id="5Plw_AftQ2re015KuwXk-32" value="&lt;span style=&quot;font-size: 16px;&quot;&gt;Prapor&lt;/span&gt;" style="ellipse;whiteSpace=wrap;html=1;movable=0;resizable=0;rotatable=0;deletable=0;editable=0;locked=1;connectable=0;" vertex="1" parent="1">
          <mxGeometry x="40" y="200" width="160" height="120" as="geometry" />
        </mxCell>
        <mxCell id="5Plw_AftQ2re015KuwXk-33" value="&lt;span style=&quot;font-size: 16px;&quot;&gt;Therapist&lt;/span&gt;" style="ellipse;whiteSpace=wrap;html=1;movable=0;resizable=0;rotatable=0;deletable=0;editable=0;locked=1;connectable=0;" vertex="1" parent="1">
          <mxGeometry x="40" y="400" width="160" height="120" as="geometry" />
        </mxCell>
        <mxCell id="5Plw_AftQ2re015KuwXk-34" value="" style="endArrow=none;html=1;rounded=0;exitX=1;exitY=0.5;exitDx=0;exitDy=0;entryX=0.5;entryY=0;entryDx=0;entryDy=0;movable=0;resizable=0;rotatable=0;deletable=0;editable=0;locked=1;connectable=0;" edge="1" parent="1" source="5Plw_AftQ2re015KuwXk-32" target="5Plw_AftQ2re015KuwXk-5">
          <mxGeometry width="50" height="50" relative="1" as="geometry">
            <mxPoint x="610" y="560" as="sourcePoint" />
            <mxPoint x="660" y="510" as="targetPoint" />
            <Array as="points">
              <mxPoint x="280" y="160" />
              <mxPoint x="680" y="160" />
            </Array>
          </mxGeometry>
        </mxCell>
        <mxCell id="5Plw_AftQ2re015KuwXk-35" value="" style="endArrow=none;html=1;rounded=0;exitX=1;exitY=0.5;exitDx=0;exitDy=0;entryX=0.5;entryY=0;entryDx=0;entryDy=0;fillColor=#60a917;strokeColor=#2D7600;movable=0;resizable=0;rotatable=0;deletable=0;editable=0;locked=1;connectable=0;" edge="1" parent="1" source="5Plw_AftQ2re015KuwXk-32" target="5Plw_AftQ2re015KuwXk-6">
          <mxGeometry width="50" height="50" relative="1" as="geometry">
            <mxPoint x="580" y="530" as="sourcePoint" />
            <mxPoint x="630" y="480" as="targetPoint" />
            <Array as="points">
              <mxPoint x="280" y="360" />
              <mxPoint x="680" y="360" />
            </Array>
          </mxGeometry>
        </mxCell>
        <mxCell id="5Plw_AftQ2re015KuwXk-36" value="" style="endArrow=none;html=1;rounded=0;exitX=1;exitY=0.5;exitDx=0;exitDy=0;entryX=0;entryY=0.5;entryDx=0;entryDy=0;fillColor=#60a917;strokeColor=#2D7600;movable=0;resizable=0;rotatable=0;deletable=0;editable=0;locked=1;connectable=0;" edge="1" parent="1" source="5Plw_AftQ2re015KuwXk-33" target="5Plw_AftQ2re015KuwXk-8">
          <mxGeometry width="50" height="50" relative="1" as="geometry">
            <mxPoint x="580" y="530" as="sourcePoint" />
            <mxPoint x="630" y="480" as="targetPoint" />
          </mxGeometry>
        </mxCell>
        <mxCell id="5Plw_AftQ2re015KuwXk-37" value="&lt;font style=&quot;font-size: 20px;&quot;&gt;BTR Stop&lt;/font&gt;" style="rounded=1;whiteSpace=wrap;html=1;movable=0;resizable=0;rotatable=0;deletable=0;editable=0;locked=1;connectable=0;" vertex="1" parent="1">
          <mxGeometry x="1840" y="40" width="160" height="80" as="geometry" />
        </mxCell>
        <mxCell id="5Plw_AftQ2re015KuwXk-38" value="&lt;span style=&quot;font-size: 20px;&quot;&gt;AccessKey&lt;/span&gt;" style="rounded=1;whiteSpace=wrap;html=1;movable=0;resizable=0;rotatable=0;deletable=0;editable=0;locked=1;connectable=0;" vertex="1" parent="1">
          <mxGeometry x="2680" y="40" width="160" height="80" as="geometry" />
        </mxCell>
        <mxCell id="5Plw_AftQ2re015KuwXk-39" value="&lt;span style=&quot;font-size: 20px;&quot;&gt;Extraction&lt;/span&gt;" style="rounded=1;whiteSpace=wrap;html=1;movable=0;resizable=0;rotatable=0;deletable=0;editable=0;locked=1;connectable=0;" vertex="1" parent="1">
          <mxGeometry x="2400" y="40" width="160" height="80" as="geometry" />
        </mxCell>
        <mxCell id="5Plw_AftQ2re015KuwXk-40" value="&lt;span style=&quot;font-size: 20px;&quot;&gt;Map&lt;/span&gt;" style="rounded=1;whiteSpace=wrap;html=1;movable=0;resizable=0;rotatable=0;deletable=0;editable=0;locked=1;connectable=0;" vertex="1" parent="1">
          <mxGeometry x="2120" y="40" width="160" height="80" as="geometry" />
        </mxCell>
        <mxCell id="5Plw_AftQ2re015KuwXk-41" value="&lt;span style=&quot;font-size: 16px;&quot;&gt;Customs&lt;/span&gt;" style="ellipse;whiteSpace=wrap;html=1;movable=0;resizable=0;rotatable=0;deletable=0;editable=0;locked=1;connectable=0;" vertex="1" parent="1">
          <mxGeometry x="2120" y="200" width="160" height="120" as="geometry" />
        </mxCell>
        <mxCell id="5Plw_AftQ2re015KuwXk-42" value="&lt;span style=&quot;font-size: 16px;&quot;&gt;Woods&lt;/span&gt;" style="ellipse;whiteSpace=wrap;html=1;movable=0;resizable=0;rotatable=0;deletable=0;editable=0;locked=1;connectable=0;" vertex="1" parent="1">
          <mxGeometry x="2120" y="400" width="160" height="120" as="geometry" />
        </mxCell>
        <mxCell id="5Plw_AftQ2re015KuwXk-44" value="&lt;span style=&quot;font-size: 16px;&quot;&gt;Depot&lt;/span&gt;" style="ellipse;whiteSpace=wrap;html=1;movable=0;resizable=0;rotatable=0;deletable=0;editable=0;locked=1;connectable=0;" vertex="1" parent="1">
          <mxGeometry x="1840" y="400" width="160" height="120" as="geometry" />
        </mxCell>
        <mxCell id="5Plw_AftQ2re015KuwXk-46" value="&lt;span style=&quot;font-size: 16px;&quot;&gt;Outskrits&lt;/span&gt;" style="ellipse;whiteSpace=wrap;html=1;movable=0;resizable=0;rotatable=0;deletable=0;editable=0;locked=1;connectable=0;" vertex="1" parent="1">
          <mxGeometry x="1840" y="600" width="160" height="120" as="geometry" />
        </mxCell>
        <mxCell id="5Plw_AftQ2re015KuwXk-48" value="" style="endArrow=none;html=1;rounded=0;entryX=0;entryY=0.5;entryDx=0;entryDy=0;exitX=1;exitY=0.5;exitDx=0;exitDy=0;movable=0;resizable=0;rotatable=0;deletable=0;editable=0;locked=1;connectable=0;" edge="1" parent="1" source="5Plw_AftQ2re015KuwXk-44" target="5Plw_AftQ2re015KuwXk-42">
          <mxGeometry width="50" height="50" relative="1" as="geometry">
            <mxPoint x="2030" y="500" as="sourcePoint" />
            <mxPoint x="2080" y="450" as="targetPoint" />
          </mxGeometry>
        </mxCell>
        <mxCell id="5Plw_AftQ2re015KuwXk-49" value="" style="endArrow=none;html=1;rounded=0;entryX=0;entryY=0.5;entryDx=0;entryDy=0;exitX=1;exitY=0.5;exitDx=0;exitDy=0;movable=0;resizable=0;rotatable=0;deletable=0;editable=0;locked=1;connectable=0;" edge="1" parent="1" source="5Plw_AftQ2re015KuwXk-46" target="5Plw_AftQ2re015KuwXk-42">
          <mxGeometry width="50" height="50" relative="1" as="geometry">
            <mxPoint x="2030" y="500" as="sourcePoint" />
            <mxPoint x="2080" y="450" as="targetPoint" />
          </mxGeometry>
        </mxCell>
        <mxCell id="5Plw_AftQ2re015KuwXk-50" value="&lt;span style=&quot;font-size: 16px;&quot;&gt;Motar Strike,&lt;/span&gt;&lt;div&gt;&lt;span style=&quot;font-size: 16px;&quot;&gt;Circle,&lt;/span&gt;&lt;/div&gt;&lt;div&gt;&lt;span style=&quot;font-size: 16px;&quot;&gt;1&lt;/span&gt;&lt;/div&gt;" style="ellipse;whiteSpace=wrap;html=1;movable=0;resizable=0;rotatable=0;deletable=0;editable=0;locked=1;connectable=0;" vertex="1" parent="1">
          <mxGeometry x="1561" y="200" width="160" height="120" as="geometry" />
        </mxCell>
        <mxCell id="5Plw_AftQ2re015KuwXk-51" value="" style="endArrow=none;html=1;rounded=0;exitX=1;exitY=0.5;exitDx=0;exitDy=0;entryX=0;entryY=0.5;entryDx=0;entryDy=0;movable=0;resizable=0;rotatable=0;deletable=0;editable=0;locked=1;connectable=0;" edge="1" parent="1" source="5Plw_AftQ2re015KuwXk-50" target="5Plw_AftQ2re015KuwXk-41">
          <mxGeometry width="50" height="50" relative="1" as="geometry">
            <mxPoint x="2030" y="500" as="sourcePoint" />
            <mxPoint x="2080" y="450" as="targetPoint" />
          </mxGeometry>
        </mxCell>
        <mxCell id="5Plw_AftQ2re015KuwXk-52" value="&lt;span style=&quot;font-size: 16px;&quot;&gt;Goons Spawn&lt;/span&gt;&lt;div&gt;&lt;span style=&quot;font-size: 16px;&quot;&gt;Area,&lt;/span&gt;&lt;/div&gt;&lt;div&gt;&lt;span style=&quot;font-size: 16px;&quot;&gt;Square,&lt;/span&gt;&lt;/div&gt;&lt;div&gt;&lt;span style=&quot;font-size: 16px;&quot;&gt;2&lt;/span&gt;&lt;/div&gt;" style="ellipse;whiteSpace=wrap;html=1;movable=0;resizable=0;rotatable=0;deletable=0;editable=0;locked=1;connectable=0;" vertex="1" parent="1">
          <mxGeometry x="1560" y="400" width="160" height="120" as="geometry" />
        </mxCell>
        <mxCell id="5Plw_AftQ2re015KuwXk-53" value="" style="endArrow=none;html=1;rounded=0;exitX=1;exitY=0.5;exitDx=0;exitDy=0;entryX=0;entryY=0.5;entryDx=0;entryDy=0;movable=0;resizable=0;rotatable=0;deletable=0;editable=0;locked=1;connectable=0;" edge="1" parent="1" source="5Plw_AftQ2re015KuwXk-52" target="5Plw_AftQ2re015KuwXk-41">
          <mxGeometry width="50" height="50" relative="1" as="geometry">
            <mxPoint x="2030" y="500" as="sourcePoint" />
            <mxPoint x="2080" y="450" as="targetPoint" />
            <Array as="points">
              <mxPoint x="1800" y="320" />
            </Array>
          </mxGeometry>
        </mxCell>
        <mxCell id="5Plw_AftQ2re015KuwXk-54" value="&lt;span style=&quot;font-size: 16px;&quot;&gt;Doorms V-Ex,&lt;/span&gt;&lt;div&gt;&lt;span style=&quot;font-size: 16px;&quot;&gt;PMC&lt;/span&gt;&lt;/div&gt;" style="ellipse;whiteSpace=wrap;html=1;movable=0;resizable=0;rotatable=0;deletable=0;editable=0;locked=1;connectable=0;" vertex="1" parent="1">
          <mxGeometry x="2400" y="200" width="160" height="120" as="geometry" />
        </mxCell>
        <mxCell id="5Plw_AftQ2re015KuwXk-55" value="&lt;span style=&quot;font-size: 16px;&quot;&gt;Adm. Gate,&lt;/span&gt;&lt;div&gt;&lt;span style=&quot;font-size: 16px;&quot;&gt;SCAV&lt;/span&gt;&lt;/div&gt;" style="ellipse;whiteSpace=wrap;html=1;movable=0;resizable=0;rotatable=0;deletable=0;editable=0;locked=1;connectable=0;" vertex="1" parent="1">
          <mxGeometry x="2400" y="400" width="160" height="120" as="geometry" />
        </mxCell>
        <mxCell id="5Plw_AftQ2re015KuwXk-56" value="&lt;span style=&quot;font-size: 16px;&quot;&gt;Depot Mine Field,&lt;/span&gt;&lt;div&gt;&lt;span style=&quot;font-size: 16px;&quot;&gt;HIDDEN&lt;/span&gt;&lt;/div&gt;" style="ellipse;whiteSpace=wrap;html=1;movable=0;resizable=0;rotatable=0;deletable=0;editable=0;locked=1;connectable=0;" vertex="1" parent="1">
          <mxGeometry x="2400" y="600" width="160" height="120" as="geometry" />
        </mxCell>
        <mxCell id="5Plw_AftQ2re015KuwXk-57" value="" style="endArrow=none;html=1;rounded=0;exitX=1;exitY=0.5;exitDx=0;exitDy=0;entryX=0;entryY=0.5;entryDx=0;entryDy=0;movable=0;resizable=0;rotatable=0;deletable=0;editable=0;locked=1;connectable=0;" edge="1" parent="1" source="5Plw_AftQ2re015KuwXk-41" target="5Plw_AftQ2re015KuwXk-54">
          <mxGeometry width="50" height="50" relative="1" as="geometry">
            <mxPoint x="2440" y="480" as="sourcePoint" />
            <mxPoint x="2490" y="430" as="targetPoint" />
          </mxGeometry>
        </mxCell>
        <mxCell id="5Plw_AftQ2re015KuwXk-58" value="" style="endArrow=none;html=1;rounded=0;exitX=1;exitY=0.5;exitDx=0;exitDy=0;entryX=0;entryY=0.5;entryDx=0;entryDy=0;movable=0;resizable=0;rotatable=0;deletable=0;editable=0;locked=1;connectable=0;" edge="1" parent="1" source="5Plw_AftQ2re015KuwXk-41" target="5Plw_AftQ2re015KuwXk-55">
          <mxGeometry width="50" height="50" relative="1" as="geometry">
            <mxPoint x="2440" y="480" as="sourcePoint" />
            <mxPoint x="2490" y="430" as="targetPoint" />
          </mxGeometry>
        </mxCell>
        <mxCell id="5Plw_AftQ2re015KuwXk-59" value="" style="endArrow=none;html=1;rounded=0;exitX=1;exitY=0.5;exitDx=0;exitDy=0;entryX=0;entryY=0.5;entryDx=0;entryDy=0;movable=0;resizable=0;rotatable=0;deletable=0;editable=0;locked=1;connectable=0;" edge="1" parent="1" source="5Plw_AftQ2re015KuwXk-42" target="5Plw_AftQ2re015KuwXk-56">
          <mxGeometry width="50" height="50" relative="1" as="geometry">
            <mxPoint x="2440" y="480" as="sourcePoint" />
            <mxPoint x="2490" y="430" as="targetPoint" />
          </mxGeometry>
        </mxCell>
        <mxCell id="5Plw_AftQ2re015KuwXk-60" value="&lt;span style=&quot;font-size: 16px;&quot;&gt;RUAF Roadblock,&lt;/span&gt;&lt;div&gt;&lt;span style=&quot;font-size: 16px;&quot;&gt;SHARED&lt;/span&gt;&lt;/div&gt;" style="ellipse;whiteSpace=wrap;html=1;movable=0;resizable=0;rotatable=0;deletable=0;editable=0;locked=1;connectable=0;" vertex="1" parent="1">
          <mxGeometry x="2400" y="800" width="160" height="120" as="geometry" />
        </mxCell>
        <mxCell id="5Plw_AftQ2re015KuwXk-61" value="" style="endArrow=none;html=1;rounded=0;exitX=1;exitY=0.5;exitDx=0;exitDy=0;entryX=0;entryY=0.5;entryDx=0;entryDy=0;movable=0;resizable=0;rotatable=0;deletable=0;editable=0;locked=1;connectable=0;" edge="1" parent="1" source="5Plw_AftQ2re015KuwXk-42" target="5Plw_AftQ2re015KuwXk-60">
          <mxGeometry width="50" height="50" relative="1" as="geometry">
            <mxPoint x="2440" y="480" as="sourcePoint" />
            <mxPoint x="2490" y="430" as="targetPoint" />
          </mxGeometry>
        </mxCell>
        <mxCell id="5Plw_AftQ2re015KuwXk-62" value="&lt;span style=&quot;font-size: 16px;&quot;&gt;Doorms Marked Room Key,&lt;/span&gt;&lt;div&gt;&lt;span style=&quot;font-size: 16px;&quot;&gt;Locked&lt;/span&gt;&lt;/div&gt;" style="ellipse;whiteSpace=wrap;html=1;movable=0;resizable=0;rotatable=0;deletable=0;editable=0;locked=1;connectable=0;" vertex="1" parent="1">
          <mxGeometry x="2680" y="200" width="160" height="120" as="geometry" />
        </mxCell>
        <mxCell id="5Plw_AftQ2re015KuwXk-63" value="" style="endArrow=none;html=1;rounded=0;exitX=0.5;exitY=0;exitDx=0;exitDy=0;entryX=0.5;entryY=0;entryDx=0;entryDy=0;movable=0;resizable=0;rotatable=0;deletable=0;editable=0;locked=1;connectable=0;" edge="1" parent="1" source="5Plw_AftQ2re015KuwXk-41" target="5Plw_AftQ2re015KuwXk-62">
          <mxGeometry width="50" height="50" relative="1" as="geometry">
            <mxPoint x="2830" y="450" as="sourcePoint" />
            <mxPoint x="2880" y="400" as="targetPoint" />
            <Array as="points">
              <mxPoint x="2200" y="160" />
              <mxPoint x="2760" y="160" />
            </Array>
          </mxGeometry>
        </mxCell>
        <mxCell id="5Plw_AftQ2re015KuwXk-64" value="&lt;span style=&quot;font-size: 16px;&quot;&gt;Doorms 315 Key,&lt;/span&gt;&lt;div&gt;&lt;span style=&quot;font-size: 16px;&quot;&gt;Locked&lt;/span&gt;&lt;/div&gt;" style="ellipse;whiteSpace=wrap;html=1;movable=0;resizable=0;rotatable=0;deletable=0;editable=0;locked=1;connectable=0;" vertex="1" parent="1">
          <mxGeometry x="2680" y="400" width="160" height="120" as="geometry" />
        </mxCell>
        <mxCell id="5Plw_AftQ2re015KuwXk-65" value="" style="endArrow=none;html=1;rounded=0;exitX=0;exitY=0.5;exitDx=0;exitDy=0;entryX=0.5;entryY=1;entryDx=0;entryDy=0;fillColor=#60a917;strokeColor=#2D7600;movable=0;resizable=0;rotatable=0;deletable=0;editable=0;locked=1;connectable=0;" edge="1" parent="1" source="5Plw_AftQ2re015KuwXk-64" target="5Plw_AftQ2re015KuwXk-41">
          <mxGeometry width="50" height="50" relative="1" as="geometry">
            <mxPoint x="2830" y="450" as="sourcePoint" />
            <mxPoint x="2880" y="400" as="targetPoint" />
            <Array as="points">
              <mxPoint x="2640" y="360" />
              <mxPoint x="2430" y="360" />
              <mxPoint x="2200" y="360" />
            </Array>
          </mxGeometry>
        </mxCell>
        <mxCell id="5Plw_AftQ2re015KuwXk-66" value="&lt;span style=&quot;font-size: 16px;&quot;&gt;Bunker 16 Key,&lt;/span&gt;&lt;div&gt;&lt;span style=&quot;font-size: 16px;&quot;&gt;Locked&lt;/span&gt;&lt;/div&gt;" style="ellipse;whiteSpace=wrap;html=1;movable=0;resizable=0;rotatable=0;deletable=0;editable=0;locked=1;connectable=0;" vertex="1" parent="1">
          <mxGeometry x="2680" y="800" width="160" height="120" as="geometry" />
        </mxCell>
        <mxCell id="5Plw_AftQ2re015KuwXk-67" value="" style="endArrow=none;html=1;rounded=0;exitX=0.5;exitY=1;exitDx=0;exitDy=0;entryX=0;entryY=0.5;entryDx=0;entryDy=0;fillColor=#60a917;strokeColor=#2D7600;movable=0;resizable=0;rotatable=0;deletable=0;editable=0;locked=1;connectable=0;" edge="1" parent="1" source="5Plw_AftQ2re015KuwXk-42" target="5Plw_AftQ2re015KuwXk-66">
          <mxGeometry width="50" height="50" relative="1" as="geometry">
            <mxPoint x="2330" y="590" as="sourcePoint" />
            <mxPoint x="2380" y="540" as="targetPoint" />
            <Array as="points">
              <mxPoint x="2200" y="760" />
              <mxPoint x="2640" y="760" />
            </Array>
          </mxGeometry>
        </mxCell>
        <mxCell id="5Plw_AftQ2re015KuwXk-78" value="&lt;span style=&quot;font-size: 16px;&quot;&gt;Doorms 214 Key,&lt;/span&gt;&lt;div&gt;&lt;span style=&quot;font-size: 16px;&quot;&gt;Unlocked&lt;/span&gt;&lt;/div&gt;" style="ellipse;whiteSpace=wrap;html=1;movable=0;resizable=0;rotatable=0;deletable=0;editable=0;locked=1;connectable=0;" vertex="1" parent="1">
          <mxGeometry x="2680" y="600" width="160" height="120" as="geometry" />
        </mxCell>
        <mxCell id="5Plw_AftQ2re015KuwXk-79" value="" style="endArrow=none;html=1;rounded=0;entryX=0.5;entryY=1;entryDx=0;entryDy=0;exitX=0;exitY=0.5;exitDx=0;exitDy=0;movable=0;resizable=0;rotatable=0;deletable=0;editable=0;locked=1;connectable=0;" edge="1" parent="1" source="5Plw_AftQ2re015KuwXk-78" target="5Plw_AftQ2re015KuwXk-41">
          <mxGeometry width="50" height="50" relative="1" as="geometry">
            <mxPoint x="2420" y="660" as="sourcePoint" />
            <mxPoint x="2470" y="610" as="targetPoint" />
            <Array as="points">
              <mxPoint x="2640" y="560" />
              <mxPoint x="2440" y="560" />
            </Array>
          </mxGeometry>
        </mxCell>
        <mxCell id="5Plw_AftQ2re015KuwXk-81" value="&lt;span style=&quot;font-size: 20px;&quot;&gt;Extraction&lt;/span&gt;" style="rounded=1;whiteSpace=wrap;html=1;movable=0;resizable=0;rotatable=0;deletable=0;editable=0;locked=1;connectable=0;" vertex="1" parent="1">
          <mxGeometry x="40" y="1200" width="160" height="80" as="geometry" />
        </mxCell>
        <mxCell id="5Plw_AftQ2re015KuwXk-82" value="&lt;span style=&quot;font-size: 16px;&quot;&gt;Doorms V-Ex,&lt;/span&gt;&lt;div&gt;&lt;span style=&quot;font-size: 16px;&quot;&gt;PMC&lt;/span&gt;&lt;/div&gt;" style="ellipse;whiteSpace=wrap;html=1;movable=0;resizable=0;rotatable=0;deletable=0;editable=0;locked=1;connectable=0;" vertex="1" parent="1">
          <mxGeometry x="40" y="1360" width="160" height="120" as="geometry" />
        </mxCell>
        <mxCell id="5Plw_AftQ2re015KuwXk-83" value="&lt;span style=&quot;font-size: 16px;&quot;&gt;Adm. Gate,&lt;/span&gt;&lt;div&gt;&lt;span style=&quot;font-size: 16px;&quot;&gt;SCAV&lt;/span&gt;&lt;/div&gt;" style="ellipse;whiteSpace=wrap;html=1;movable=0;resizable=0;rotatable=0;deletable=0;editable=0;locked=1;connectable=0;" vertex="1" parent="1">
          <mxGeometry x="40" y="1560" width="160" height="120" as="geometry" />
        </mxCell>
        <mxCell id="5Plw_AftQ2re015KuwXk-84" value="&lt;span style=&quot;font-size: 16px;&quot;&gt;Depot Mine Field,&lt;/span&gt;&lt;div&gt;&lt;span style=&quot;font-size: 16px;&quot;&gt;HIDDEN&lt;/span&gt;&lt;/div&gt;" style="ellipse;whiteSpace=wrap;html=1;movable=0;resizable=0;rotatable=0;deletable=0;editable=0;locked=1;connectable=0;" vertex="1" parent="1">
          <mxGeometry x="40" y="1760" width="160" height="120" as="geometry" />
        </mxCell>
        <mxCell id="5Plw_AftQ2re015KuwXk-85" value="&lt;span style=&quot;font-size: 16px;&quot;&gt;RUAF Roadblock,&lt;/span&gt;&lt;div&gt;&lt;span style=&quot;font-size: 16px;&quot;&gt;SHARED&lt;/span&gt;&lt;/div&gt;" style="ellipse;whiteSpace=wrap;html=1;movable=0;resizable=0;rotatable=0;deletable=0;editable=0;locked=1;connectable=0;" vertex="1" parent="1">
          <mxGeometry x="40" y="1960" width="160" height="120" as="geometry" />
        </mxCell>
        <mxCell id="5Plw_AftQ2re015KuwXk-86" value="&lt;span style=&quot;font-size: 20px;&quot;&gt;Extraction,&lt;/span&gt;&lt;div&gt;&lt;span style=&quot;font-size: 20px;&quot;&gt;Requirement&lt;/span&gt;&lt;/div&gt;" style="rounded=1;whiteSpace=wrap;html=1;movable=0;resizable=0;rotatable=0;deletable=0;editable=0;locked=1;connectable=0;" vertex="1" parent="1">
          <mxGeometry x="322" y="1200" width="160" height="80" as="geometry" />
        </mxCell>
        <mxCell id="5Plw_AftQ2re015KuwXk-87" value="&lt;span style=&quot;font-size: 16px;&quot;&gt;Rubels&lt;/span&gt;" style="ellipse;whiteSpace=wrap;html=1;movable=0;resizable=0;rotatable=0;deletable=0;editable=0;locked=1;connectable=0;" vertex="1" parent="1">
          <mxGeometry x="322" y="1360" width="160" height="120" as="geometry" />
        </mxCell>
        <mxCell id="5Plw_AftQ2re015KuwXk-88" value="&lt;span style=&quot;font-size: 16px;&quot;&gt;Artifact&lt;/span&gt;" style="ellipse;whiteSpace=wrap;html=1;movable=0;resizable=0;rotatable=0;deletable=0;editable=0;locked=1;connectable=0;" vertex="1" parent="1">
          <mxGeometry x="322" y="1760" width="160" height="120" as="geometry" />
        </mxCell>
        <mxCell id="5Plw_AftQ2re015KuwXk-89" value="&lt;span style=&quot;font-size: 16px;&quot;&gt;Co-Op&lt;/span&gt;" style="ellipse;whiteSpace=wrap;html=1;movable=0;resizable=0;rotatable=0;deletable=0;editable=0;locked=1;connectable=0;" vertex="1" parent="1">
          <mxGeometry x="322" y="1960" width="160" height="120" as="geometry" />
        </mxCell>
        <mxCell id="5Plw_AftQ2re015KuwXk-90" value="" style="endArrow=none;html=1;rounded=0;exitX=1;exitY=0.5;exitDx=0;exitDy=0;entryX=0;entryY=0.5;entryDx=0;entryDy=0;movable=0;resizable=0;rotatable=0;deletable=0;editable=0;locked=1;connectable=0;" edge="1" parent="1" source="5Plw_AftQ2re015KuwXk-85" target="5Plw_AftQ2re015KuwXk-89">
          <mxGeometry width="50" height="50" relative="1" as="geometry">
            <mxPoint x="-230" y="1820" as="sourcePoint" />
            <mxPoint x="-180" y="1770" as="targetPoint" />
          </mxGeometry>
        </mxCell>
        <mxCell id="5Plw_AftQ2re015KuwXk-91" value="" style="endArrow=none;html=1;rounded=0;entryX=1;entryY=0.5;entryDx=0;entryDy=0;exitX=0;exitY=0.5;exitDx=0;exitDy=0;movable=0;resizable=0;rotatable=0;deletable=0;editable=0;locked=1;connectable=0;" edge="1" parent="1" source="5Plw_AftQ2re015KuwXk-88" target="5Plw_AftQ2re015KuwXk-84">
          <mxGeometry width="50" height="50" relative="1" as="geometry">
            <mxPoint x="-230" y="1820" as="sourcePoint" />
            <mxPoint x="-180" y="1770" as="targetPoint" />
          </mxGeometry>
        </mxCell>
        <mxCell id="5Plw_AftQ2re015KuwXk-92" value="&lt;span style=&quot;font-size: 16px;&quot;&gt;No Backpack&lt;/span&gt;" style="ellipse;whiteSpace=wrap;html=1;movable=0;resizable=0;rotatable=0;deletable=0;editable=0;locked=1;connectable=0;" vertex="1" parent="1">
          <mxGeometry x="322" y="1560" width="160" height="120" as="geometry" />
        </mxCell>
        <mxCell id="5Plw_AftQ2re015KuwXk-93" value="" style="endArrow=none;html=1;rounded=0;entryX=1;entryY=0.5;entryDx=0;entryDy=0;exitX=0;exitY=0.5;exitDx=0;exitDy=0;movable=0;resizable=0;rotatable=0;deletable=0;editable=0;locked=1;connectable=0;" edge="1" parent="1" source="5Plw_AftQ2re015KuwXk-92" target="5Plw_AftQ2re015KuwXk-83">
          <mxGeometry width="50" height="50" relative="1" as="geometry">
            <mxPoint x="-230" y="1820" as="sourcePoint" />
            <mxPoint x="-180" y="1770" as="targetPoint" />
          </mxGeometry>
        </mxCell>
        <mxCell id="5Plw_AftQ2re015KuwXk-94" value="" style="endArrow=none;html=1;rounded=0;entryX=1;entryY=0.5;entryDx=0;entryDy=0;exitX=0;exitY=0.5;exitDx=0;exitDy=0;movable=0;resizable=0;rotatable=0;deletable=0;editable=0;locked=1;connectable=0;" edge="1" parent="1" source="5Plw_AftQ2re015KuwXk-92" target="5Plw_AftQ2re015KuwXk-84">
          <mxGeometry width="50" height="50" relative="1" as="geometry">
            <mxPoint x="240" y="1710" as="sourcePoint" />
            <mxPoint x="-180" y="1770" as="targetPoint" />
          </mxGeometry>
        </mxCell>
        <mxCell id="5Plw_AftQ2re015KuwXk-95" value="" style="endArrow=none;html=1;rounded=0;entryX=1;entryY=0.5;entryDx=0;entryDy=0;exitX=0;exitY=0.5;exitDx=0;exitDy=0;movable=0;resizable=0;rotatable=0;deletable=0;editable=0;locked=1;connectable=0;" edge="1" parent="1" source="5Plw_AftQ2re015KuwXk-87" target="5Plw_AftQ2re015KuwXk-82">
          <mxGeometry width="50" height="50" relative="1" as="geometry">
            <mxPoint x="-230" y="1820" as="sourcePoint" />
            <mxPoint x="-180" y="1770" as="targetPoint" />
          </mxGeometry>
        </mxCell>
        <mxCell id="5Plw_AftQ2re015KuwXk-96" value="" style="endArrow=none;html=1;rounded=0;strokeWidth=7;movable=0;resizable=0;rotatable=0;deletable=0;editable=0;locked=1;connectable=0;" edge="1" parent="1">
          <mxGeometry width="50" height="50" relative="1" as="geometry">
            <mxPoint x="560" y="2280" as="sourcePoint" />
            <mxPoint x="560" y="1200" as="targetPoint" />
          </mxGeometry>
        </mxCell>
        <mxCell id="5Plw_AftQ2re015KuwXk-97" value="&lt;span style=&quot;font-size: 20px;&quot;&gt;Keybind&lt;/span&gt;" style="rounded=1;whiteSpace=wrap;html=1;movable=0;resizable=0;rotatable=0;deletable=0;editable=0;locked=1;connectable=0;" vertex="1" parent="1">
          <mxGeometry x="3080" y="40" width="160" height="80" as="geometry" />
        </mxCell>
        <mxCell id="5Plw_AftQ2re015KuwXk-98" value="&lt;span style=&quot;font-size: 16px;&quot;&gt;Drop Backpack,&lt;/span&gt;&lt;div&gt;&lt;span style=&quot;font-size: 16px;&quot;&gt;Z,&lt;/span&gt;&lt;/div&gt;&lt;div&gt;&lt;span style=&quot;font-size: 16px;&quot;&gt;Double&lt;/span&gt;&lt;/div&gt;" style="ellipse;whiteSpace=wrap;html=1;movable=0;resizable=0;rotatable=0;deletable=0;editable=0;locked=1;connectable=0;" vertex="1" parent="1">
          <mxGeometry x="3080" y="160" width="160" height="120" as="geometry" />
        </mxCell>
        <mxCell id="5Plw_AftQ2re015KuwXk-99" value="&lt;span style=&quot;font-size: 16px;&quot;&gt;Shoot,&lt;/span&gt;&lt;div&gt;&lt;span style=&quot;font-size: 16px;&quot;&gt;RMB,&lt;/span&gt;&lt;/div&gt;&lt;div&gt;&lt;span style=&quot;font-size: 16px;&quot;&gt;Press&lt;/span&gt;&lt;/div&gt;" style="ellipse;whiteSpace=wrap;html=1;movable=0;resizable=0;rotatable=0;deletable=0;editable=0;locked=1;connectable=0;" vertex="1" parent="1">
          <mxGeometry x="3080" y="360" width="160" height="120" as="geometry" />
        </mxCell>
        <mxCell id="5Plw_AftQ2re015KuwXk-100" value="&lt;div&gt;&lt;span style=&quot;font-size: 16px;&quot;&gt;Lean Left,&lt;/span&gt;&lt;/div&gt;&lt;div&gt;&lt;span style=&quot;font-size: 16px;&quot;&gt;ALT, E,&lt;/span&gt;&lt;/div&gt;&lt;div&gt;&lt;span style=&quot;font-size: 16px;&quot;&gt;Hold&lt;/span&gt;&lt;/div&gt;" style="ellipse;whiteSpace=wrap;html=1;movable=0;resizable=0;rotatable=0;deletable=0;editable=0;locked=1;connectable=0;" vertex="1" parent="1">
          <mxGeometry x="3080" y="560" width="160" height="120" as="geometry" />
        </mxCell>
        <mxCell id="5Plw_AftQ2re015KuwXk-101" value="" style="endArrow=classic;html=1;rounded=0;exitX=0.5;exitY=0;exitDx=0;exitDy=0;entryX=0.5;entryY=1;entryDx=0;entryDy=0;startArrow=none;startFill=0;endFill=1;movable=0;resizable=0;rotatable=0;deletable=0;editable=0;locked=1;connectable=0;" edge="1" parent="1" source="5Plw_AftQ2re015KuwXk-8" target="5Plw_AftQ2re015KuwXk-6">
          <mxGeometry width="50" height="50" relative="1" as="geometry">
            <mxPoint x="720" y="410" as="sourcePoint" />
            <mxPoint x="770" y="360" as="targetPoint" />
          </mxGeometry>
        </mxCell>
        <mxCell id="5Plw_AftQ2re015KuwXk-105" value="Requires&lt;div&gt;Completion of&lt;/div&gt;" style="edgeLabel;html=1;align=center;verticalAlign=middle;resizable=0;points=[];movable=0;rotatable=0;deletable=0;editable=0;locked=1;connectable=0;" vertex="1" connectable="0" parent="5Plw_AftQ2re015KuwXk-101">
          <mxGeometry x="-0.0119" relative="1" as="geometry">
            <mxPoint as="offset" />
          </mxGeometry>
        </mxCell>
        <mxCell id="5Plw_AftQ2re015KuwXk-102" value="&lt;span style=&quot;font-size: 16px;&quot;&gt;A friend from the&lt;/span&gt;&lt;div&gt;&lt;span style=&quot;font-size: 16px;&quot;&gt;west,&lt;/span&gt;&lt;/div&gt;&lt;div&gt;&lt;span style=&quot;font-size: 16px;&quot;&gt;No, No,&lt;/span&gt;&lt;/div&gt;&lt;div&gt;&lt;span style=&quot;font-size: 16px;&quot;&gt;Locked&lt;/span&gt;&lt;/div&gt;" style="ellipse;whiteSpace=wrap;html=1;movable=0;resizable=0;rotatable=0;deletable=0;editable=0;locked=1;connectable=0;" vertex="1" parent="1">
          <mxGeometry x="600" y="800" width="160" height="120" as="geometry" />
        </mxCell>
        <mxCell id="5Plw_AftQ2re015KuwXk-103" value="" style="endArrow=classic;html=1;rounded=0;exitX=0.5;exitY=1;exitDx=0;exitDy=0;entryX=0.5;entryY=0;entryDx=0;entryDy=0;startArrow=classic;startFill=1;endFill=1;movable=0;resizable=0;rotatable=0;deletable=0;editable=0;locked=1;connectable=0;" edge="1" parent="1" source="5Plw_AftQ2re015KuwXk-8" target="5Plw_AftQ2re015KuwXk-102">
          <mxGeometry width="50" height="50" relative="1" as="geometry">
            <mxPoint x="680" y="670" as="sourcePoint" />
            <mxPoint x="730" y="620" as="targetPoint" />
          </mxGeometry>
        </mxCell>
        <mxCell id="5Plw_AftQ2re015KuwXk-104" value="OR" style="edgeLabel;html=1;align=center;verticalAlign=middle;resizable=0;points=[];movable=0;rotatable=0;deletable=0;editable=0;locked=1;connectable=0;" vertex="1" connectable="0" parent="5Plw_AftQ2re015KuwXk-103">
          <mxGeometry x="0.0088" y="1" relative="1" as="geometry">
            <mxPoint x="-1" as="offset" />
          </mxGeometry>
        </mxCell>
        <mxCell id="5Plw_AftQ2re015KuwXk-106" value="" style="endArrow=none;html=1;rounded=0;exitX=0;exitY=0.5;exitDx=0;exitDy=0;entryX=1;entryY=0.5;entryDx=0;entryDy=0;fillColor=#60a917;strokeColor=#2D7600;movable=0;resizable=0;rotatable=0;deletable=0;editable=0;locked=1;connectable=0;" edge="1" parent="1" source="5Plw_AftQ2re015KuwXk-102" target="5Plw_AftQ2re015KuwXk-107">
          <mxGeometry width="50" height="50" relative="1" as="geometry">
            <mxPoint x="1070" y="660" as="sourcePoint" />
            <mxPoint x="200" y="680" as="targetPoint" />
          </mxGeometry>
        </mxCell>
        <mxCell id="5Plw_AftQ2re015KuwXk-107" value="&lt;span style=&quot;font-size: 16px;&quot;&gt;Mechanic&lt;/span&gt;" style="ellipse;whiteSpace=wrap;html=1;movable=0;resizable=0;rotatable=0;deletable=0;editable=0;locked=1;connectable=0;" vertex="1" parent="1">
          <mxGeometry x="40" y="600" width="160" height="120" as="geometry" />
        </mxCell>
        <mxCell id="XGN5cB1iPvMOFLCACEGZ-1" value="&lt;font style=&quot;font-size: 20px;&quot;&gt;Quest&lt;/font&gt;" style="rounded=1;whiteSpace=wrap;html=1;movable=0;resizable=0;rotatable=0;deletable=0;editable=0;locked=1;connectable=0;" vertex="1" parent="1">
          <mxGeometry x="680" y="1200" width="160" height="80" as="geometry" />
        </mxCell>
        <mxCell id="XGN5cB1iPvMOFLCACEGZ-2" value="&lt;font style=&quot;font-size: 16px;&quot;&gt;Shooting Cans,&lt;/font&gt;&lt;div&gt;&lt;font style=&quot;font-size: 16px;&quot;&gt;Yes, Yes,&lt;/font&gt;&lt;/div&gt;&lt;div&gt;&lt;font style=&quot;font-size: 16px;&quot;&gt;Intial&lt;/font&gt;&lt;/div&gt;" style="ellipse;whiteSpace=wrap;html=1;movable=0;resizable=0;rotatable=0;deletable=0;editable=0;locked=1;connectable=0;" vertex="1" parent="1">
          <mxGeometry x="680" y="1360" width="160" height="120" as="geometry" />
        </mxCell>
        <mxCell id="XGN5cB1iPvMOFLCACEGZ-3" value="&lt;span style=&quot;font-size: 16px;&quot;&gt;Introduction,&lt;/span&gt;&lt;div&gt;&lt;span style=&quot;font-size: 16px;&quot;&gt;Yes, No,&lt;/span&gt;&lt;/div&gt;&lt;div&gt;&lt;span style=&quot;font-size: 16px;&quot;&gt;Unlocked&lt;/span&gt;&lt;/div&gt;" style="ellipse;whiteSpace=wrap;html=1;movable=0;resizable=0;rotatable=0;deletable=0;editable=0;locked=1;connectable=0;" vertex="1" parent="1">
          <mxGeometry x="680" y="1560" width="160" height="120" as="geometry" />
        </mxCell>
        <mxCell id="XGN5cB1iPvMOFLCACEGZ-4" value="&lt;span style=&quot;font-size: 16px;&quot;&gt;Rigged Game,&lt;/span&gt;&lt;div&gt;&lt;span style=&quot;font-size: 16px;&quot;&gt;No, No,&lt;/span&gt;&lt;/div&gt;&lt;div&gt;&lt;span style=&quot;font-size: 16px;&quot;&gt;Locked&lt;/span&gt;&lt;/div&gt;" style="ellipse;whiteSpace=wrap;html=1;movable=0;resizable=0;rotatable=0;deletable=0;editable=0;locked=1;connectable=0;" vertex="1" parent="1">
          <mxGeometry x="680" y="1760" width="160" height="120" as="geometry" />
        </mxCell>
        <mxCell id="XGN5cB1iPvMOFLCACEGZ-5" value="&lt;span style=&quot;font-size: 16px;&quot;&gt;A friend from the&lt;/span&gt;&lt;div&gt;&lt;span style=&quot;font-size: 16px;&quot;&gt;west,&lt;/span&gt;&lt;/div&gt;&lt;div&gt;&lt;span style=&quot;font-size: 16px;&quot;&gt;No, No,&lt;/span&gt;&lt;/div&gt;&lt;div&gt;&lt;span style=&quot;font-size: 16px;&quot;&gt;Locked&lt;/span&gt;&lt;/div&gt;" style="ellipse;whiteSpace=wrap;html=1;movable=0;resizable=0;rotatable=0;deletable=0;editable=0;locked=1;connectable=0;" vertex="1" parent="1">
          <mxGeometry x="680" y="1960" width="160" height="120" as="geometry" />
        </mxCell>
        <mxCell id="XGN5cB1iPvMOFLCACEGZ-6" value="&lt;span style=&quot;font-size: 20px;&quot;&gt;AccessKey&lt;/span&gt;" style="rounded=1;whiteSpace=wrap;html=1;movable=0;resizable=0;rotatable=0;deletable=0;editable=0;locked=1;connectable=0;" vertex="1" parent="1">
          <mxGeometry x="960" y="1200" width="160" height="80" as="geometry" />
        </mxCell>
        <mxCell id="XGN5cB1iPvMOFLCACEGZ-7" value="&lt;span style=&quot;font-size: 16px;&quot;&gt;Doorms Marked Room Key,&lt;/span&gt;&lt;div&gt;&lt;span style=&quot;font-size: 16px;&quot;&gt;Locked&lt;/span&gt;&lt;/div&gt;" style="ellipse;whiteSpace=wrap;html=1;movable=0;resizable=0;rotatable=0;deletable=0;editable=0;locked=1;connectable=0;" vertex="1" parent="1">
          <mxGeometry x="960" y="1360" width="160" height="120" as="geometry" />
        </mxCell>
        <mxCell id="XGN5cB1iPvMOFLCACEGZ-8" value="&lt;span style=&quot;font-size: 16px;&quot;&gt;Doorms 315 Key,&lt;/span&gt;&lt;div&gt;&lt;span style=&quot;font-size: 16px;&quot;&gt;Locked&lt;/span&gt;&lt;/div&gt;" style="ellipse;whiteSpace=wrap;html=1;movable=0;resizable=0;rotatable=0;deletable=0;editable=0;locked=1;connectable=0;" vertex="1" parent="1">
          <mxGeometry x="960" y="1560" width="160" height="120" as="geometry" />
        </mxCell>
        <mxCell id="XGN5cB1iPvMOFLCACEGZ-9" value="&lt;span style=&quot;font-size: 16px;&quot;&gt;Bunker 16 Key,&lt;/span&gt;&lt;div&gt;&lt;span style=&quot;font-size: 16px;&quot;&gt;Locked&lt;/span&gt;&lt;/div&gt;" style="ellipse;whiteSpace=wrap;html=1;movable=0;resizable=0;rotatable=0;deletable=0;editable=0;locked=1;connectable=0;" vertex="1" parent="1">
          <mxGeometry x="960" y="1960" width="160" height="120" as="geometry" />
        </mxCell>
        <mxCell id="XGN5cB1iPvMOFLCACEGZ-10" value="&lt;span style=&quot;font-size: 16px;&quot;&gt;Doorms 214 Key,&lt;/span&gt;&lt;div&gt;&lt;span style=&quot;font-size: 16px;&quot;&gt;Unlocked&lt;/span&gt;&lt;/div&gt;" style="ellipse;whiteSpace=wrap;html=1;movable=0;resizable=0;rotatable=0;deletable=0;editable=0;locked=1;connectable=0;" vertex="1" parent="1">
          <mxGeometry x="960" y="1760" width="160" height="120" as="geometry" />
        </mxCell>
        <mxCell id="XGN5cB1iPvMOFLCACEGZ-11" value="" style="endArrow=none;html=1;rounded=0;entryX=1;entryY=0.5;entryDx=0;entryDy=0;exitX=0;exitY=0.5;exitDx=0;exitDy=0;movable=0;resizable=0;rotatable=0;deletable=0;editable=0;locked=1;connectable=0;" edge="1" parent="1" source="XGN5cB1iPvMOFLCACEGZ-9" target="XGN5cB1iPvMOFLCACEGZ-5">
          <mxGeometry width="50" height="50" relative="1" as="geometry">
            <mxPoint x="1120" y="1730" as="sourcePoint" />
            <mxPoint x="1240" y="1680" as="targetPoint" />
          </mxGeometry>
        </mxCell>
        <mxCell id="XGN5cB1iPvMOFLCACEGZ-12" value="" style="endArrow=none;html=1;rounded=0;exitX=1;exitY=0.5;exitDx=0;exitDy=0;entryX=0;entryY=0.5;entryDx=0;entryDy=0;movable=0;resizable=0;rotatable=0;deletable=0;editable=0;locked=1;connectable=0;" edge="1" parent="1" source="XGN5cB1iPvMOFLCACEGZ-5" target="XGN5cB1iPvMOFLCACEGZ-8">
          <mxGeometry width="50" height="50" relative="1" as="geometry">
            <mxPoint x="1030" y="1880" as="sourcePoint" />
            <mxPoint x="1080" y="1830" as="targetPoint" />
          </mxGeometry>
        </mxCell>
        <mxCell id="XGN5cB1iPvMOFLCACEGZ-13" value="" style="endArrow=none;html=1;rounded=0;strokeWidth=7;movable=0;resizable=0;rotatable=0;deletable=0;editable=0;locked=1;connectable=0;" edge="1" parent="1">
          <mxGeometry width="50" height="50" relative="1" as="geometry">
            <mxPoint x="1240" y="2280" as="sourcePoint" />
            <mxPoint x="1240" y="1200" as="targetPoint" />
          </mxGeometry>
        </mxCell>
        <mxCell id="XGN5cB1iPvMOFLCACEGZ-14" value="&lt;font style=&quot;font-size: 30px;&quot;&gt;QUEST&lt;/font&gt;" style="rounded=1;whiteSpace=wrap;html=1;movable=0;resizable=0;rotatable=0;deletable=0;editable=0;locked=1;connectable=0;" vertex="1" parent="1">
          <mxGeometry x="-40" y="1040" width="1440" height="80" as="geometry" />
        </mxCell>
        <mxCell id="XGN5cB1iPvMOFLCACEGZ-15" value="&lt;font style=&quot;font-size: 30px;&quot;&gt;MAP&lt;/font&gt;" style="rounded=1;whiteSpace=wrap;html=1;movable=0;resizable=0;rotatable=0;deletable=0;editable=0;locked=1;connectable=0;" vertex="1" parent="1">
          <mxGeometry x="1480" y="1040" width="1440" height="80" as="geometry" />
        </mxCell>
        <mxCell id="XGN5cB1iPvMOFLCACEGZ-17" value="&lt;font style=&quot;font-size: 30px;&quot;&gt;EXTRACTION&lt;/font&gt;" style="rounded=1;whiteSpace=wrap;html=1;movable=0;resizable=0;rotatable=0;deletable=0;editable=0;locked=1;connectable=0;" vertex="1" parent="1">
          <mxGeometry x="-40" y="2200" width="560" height="80" as="geometry" />
        </mxCell>
        <mxCell id="XGN5cB1iPvMOFLCACEGZ-18" value="&lt;font style=&quot;font-size: 30px;&quot;&gt;QUEST&lt;/font&gt;&lt;div&gt;&lt;span style=&quot;font-size: 30px; background-color: transparent; color: light-dark(rgb(0, 0, 0), rgb(255, 255, 255));&quot;&gt;ACCESSKEY&lt;/span&gt;&lt;/div&gt;" style="rounded=1;whiteSpace=wrap;html=1;movable=0;resizable=0;rotatable=0;deletable=0;editable=0;locked=1;connectable=0;" vertex="1" parent="1">
          <mxGeometry x="600" y="2200" width="600" height="80" as="geometry" />
        </mxCell>
        <mxCell id="XGN5cB1iPvMOFLCACEGZ-19" value="&lt;font style=&quot;font-size: 30px;&quot;&gt;KEYBIND&lt;/font&gt;" style="rounded=1;whiteSpace=wrap;html=1;movable=0;resizable=0;rotatable=0;deletable=0;editable=0;locked=1;connectable=0;" vertex="1" parent="1">
          <mxGeometry x="3000" y="1040" width="320" height="80" as="geometry" />
        </mxCell>
        <mxCell id="KCmx6OZbH3kaR4cLpUJ_-1" value="" style="endArrow=none;html=1;rounded=0;strokeWidth=7;movable=0;resizable=0;rotatable=0;deletable=0;editable=0;locked=1;connectable=0;" edge="1" parent="1">
          <mxGeometry width="50" height="50" relative="1" as="geometry">
            <mxPoint x="3320" y="1160" as="sourcePoint" />
            <mxPoint x="-40" y="1160" as="targetPoint" />
          </mxGeometry>
        </mxCell>
        <mxCell id="KCmx6OZbH3kaR4cLpUJ_-2" value="" style="endArrow=none;html=1;rounded=0;strokeWidth=7;movable=0;resizable=0;rotatable=0;deletable=0;editable=0;locked=1;connectable=0;" edge="1" parent="1">
          <mxGeometry width="50" height="50" relative="1" as="geometry">
            <mxPoint x="2960" y="1120" as="sourcePoint" />
            <mxPoint x="2960" y="40" as="targetPoint" />
          </mxGeometry>
        </mxCell>
        <mxCell id="KCmx6OZbH3kaR4cLpUJ_-3" value="&lt;font style=&quot;font-size: 30px;&quot;&gt;HIDEOUT&lt;/font&gt;" style="rounded=1;whiteSpace=wrap;html=1;movable=0;resizable=0;rotatable=0;deletable=0;editable=0;locked=1;connectable=0;" vertex="1" parent="1">
          <mxGeometry x="1960" y="2200" width="1360" height="80" as="geometry" />
        </mxCell>
        <mxCell id="nY9At0rtFD_m7tp4O3Nv-1" value="&lt;span style=&quot;font-size: 30px;&quot;&gt;ACCESSKEY&lt;/span&gt;" style="rounded=1;whiteSpace=wrap;html=1;movable=0;resizable=0;rotatable=0;deletable=0;editable=0;locked=1;connectable=0;" vertex="1" parent="1">
          <mxGeometry x="1280" y="2200" width="600" height="80" as="geometry" />
        </mxCell>
        <mxCell id="nY9At0rtFD_m7tp4O3Nv-2" value="&lt;span style=&quot;font-size: 20px;&quot;&gt;AccessKey&lt;/span&gt;" style="rounded=1;whiteSpace=wrap;html=1;movable=0;resizable=0;rotatable=0;deletable=0;editable=0;locked=1;connectable=0;" vertex="1" parent="1">
          <mxGeometry x="1360" y="1200" width="160" height="80" as="geometry" />
        </mxCell>
        <mxCell id="nY9At0rtFD_m7tp4O3Nv-3" value="&lt;span style=&quot;font-size: 20px;&quot;&gt;AccessKey,&lt;/span&gt;&lt;div&gt;&lt;span style=&quot;font-size: 20px;&quot;&gt;Loot&lt;/span&gt;&lt;/div&gt;" style="rounded=1;whiteSpace=wrap;html=1;movable=0;resizable=0;rotatable=0;deletable=0;editable=0;locked=1;connectable=0;" vertex="1" parent="1">
          <mxGeometry x="1640" y="1200" width="160" height="80" as="geometry" />
        </mxCell>
        <mxCell id="nY9At0rtFD_m7tp4O3Nv-4" value="&lt;span style=&quot;font-size: 16px;&quot;&gt;Doorms Marked Room Key,&lt;/span&gt;&lt;div&gt;&lt;span style=&quot;font-size: 16px;&quot;&gt;Locked&lt;/span&gt;&lt;/div&gt;" style="ellipse;whiteSpace=wrap;html=1;movable=0;resizable=0;rotatable=0;deletable=0;editable=0;locked=1;connectable=0;" vertex="1" parent="1">
          <mxGeometry x="1360" y="1360" width="160" height="120" as="geometry" />
        </mxCell>
        <mxCell id="nY9At0rtFD_m7tp4O3Nv-5" value="&lt;span style=&quot;font-size: 16px;&quot;&gt;Doorms 315 Key,&lt;/span&gt;&lt;div&gt;&lt;span style=&quot;font-size: 16px;&quot;&gt;Locked&lt;/span&gt;&lt;/div&gt;" style="ellipse;whiteSpace=wrap;html=1;movable=0;resizable=0;rotatable=0;deletable=0;editable=0;locked=1;connectable=0;" vertex="1" parent="1">
          <mxGeometry x="1360" y="1560" width="160" height="120" as="geometry" />
        </mxCell>
        <mxCell id="nY9At0rtFD_m7tp4O3Nv-6" value="&lt;span style=&quot;font-size: 16px;&quot;&gt;Bunker 16 Key,&lt;/span&gt;&lt;div&gt;&lt;span style=&quot;font-size: 16px;&quot;&gt;Locked&lt;/span&gt;&lt;/div&gt;" style="ellipse;whiteSpace=wrap;html=1;movable=0;resizable=0;rotatable=0;deletable=0;editable=0;locked=1;connectable=0;" vertex="1" parent="1">
          <mxGeometry x="1360" y="1960" width="160" height="120" as="geometry" />
        </mxCell>
        <mxCell id="nY9At0rtFD_m7tp4O3Nv-7" value="&lt;span style=&quot;font-size: 16px;&quot;&gt;Valuables,&lt;/span&gt;&lt;div&gt;&lt;span style=&quot;font-size: 16px;&quot;&gt;7 Spawns&lt;/span&gt;&lt;/div&gt;" style="ellipse;whiteSpace=wrap;html=1;movable=0;resizable=0;rotatable=0;deletable=0;editable=0;locked=1;connectable=0;" vertex="1" parent="1">
          <mxGeometry x="1640" y="1360" width="160" height="120" as="geometry" />
        </mxCell>
        <mxCell id="nY9At0rtFD_m7tp4O3Nv-8" value="" style="endArrow=none;html=1;rounded=0;exitX=1;exitY=0.5;exitDx=0;exitDy=0;entryX=0;entryY=0.5;entryDx=0;entryDy=0;movable=0;resizable=0;rotatable=0;deletable=0;editable=0;locked=1;connectable=0;" edge="1" parent="1" source="nY9At0rtFD_m7tp4O3Nv-4" target="nY9At0rtFD_m7tp4O3Nv-7">
          <mxGeometry width="50" height="50" relative="1" as="geometry">
            <mxPoint x="1300" y="1750" as="sourcePoint" />
            <mxPoint x="1350" y="1700" as="targetPoint" />
          </mxGeometry>
        </mxCell>
        <mxCell id="nY9At0rtFD_m7tp4O3Nv-9" value="&lt;span style=&quot;font-size: 16px;&quot;&gt;Intel&lt;/span&gt;" style="ellipse;whiteSpace=wrap;html=1;movable=0;resizable=0;rotatable=0;deletable=0;editable=0;locked=1;connectable=0;" vertex="1" parent="1">
          <mxGeometry x="1640" y="1960" width="160" height="120" as="geometry" />
        </mxCell>
        <mxCell id="nY9At0rtFD_m7tp4O3Nv-10" value="" style="endArrow=none;html=1;rounded=0;exitX=1;exitY=0.5;exitDx=0;exitDy=0;entryX=0;entryY=0.5;entryDx=0;entryDy=0;movable=0;resizable=0;rotatable=0;deletable=0;editable=0;locked=1;connectable=0;" edge="1" parent="1" source="nY9At0rtFD_m7tp4O3Nv-6" target="nY9At0rtFD_m7tp4O3Nv-9">
          <mxGeometry width="50" height="50" relative="1" as="geometry">
            <mxPoint x="1300" y="1750" as="sourcePoint" />
            <mxPoint x="1350" y="1700" as="targetPoint" />
          </mxGeometry>
        </mxCell>
        <mxCell id="nY9At0rtFD_m7tp4O3Nv-11" value="&lt;span style=&quot;font-size: 16px;&quot;&gt;Keycards,&lt;/span&gt;&lt;div&gt;&lt;span style=&quot;font-size: 16px;&quot;&gt;4 Spawns&lt;/span&gt;&lt;/div&gt;" style="ellipse;whiteSpace=wrap;html=1;movable=0;resizable=0;rotatable=0;deletable=0;editable=0;locked=1;connectable=0;" vertex="1" parent="1">
          <mxGeometry x="1640" y="1560" width="160" height="120" as="geometry" />
        </mxCell>
        <mxCell id="nY9At0rtFD_m7tp4O3Nv-12" value="&lt;span style=&quot;font-size: 16px;&quot;&gt;Weapons,&lt;/span&gt;&lt;div&gt;&lt;span style=&quot;font-size: 16px;&quot;&gt;3 Spawns&lt;/span&gt;&lt;/div&gt;" style="ellipse;whiteSpace=wrap;html=1;movable=0;resizable=0;rotatable=0;deletable=0;editable=0;locked=1;connectable=0;" vertex="1" parent="1">
          <mxGeometry x="1640" y="1760" width="160" height="120" as="geometry" />
        </mxCell>
        <mxCell id="nY9At0rtFD_m7tp4O3Nv-13" value="" style="endArrow=none;html=1;rounded=0;entryX=1;entryY=0.5;entryDx=0;entryDy=0;exitX=0;exitY=0.5;exitDx=0;exitDy=0;movable=0;resizable=0;rotatable=0;deletable=0;editable=0;locked=1;connectable=0;" edge="1" parent="1" source="nY9At0rtFD_m7tp4O3Nv-11" target="nY9At0rtFD_m7tp4O3Nv-4">
          <mxGeometry width="50" height="50" relative="1" as="geometry">
            <mxPoint x="1300" y="1750" as="sourcePoint" />
            <mxPoint x="1350" y="1700" as="targetPoint" />
          </mxGeometry>
        </mxCell>
        <mxCell id="nY9At0rtFD_m7tp4O3Nv-14" value="" style="endArrow=none;html=1;rounded=0;entryX=1;entryY=0.5;entryDx=0;entryDy=0;exitX=0;exitY=0.5;exitDx=0;exitDy=0;movable=0;resizable=0;rotatable=0;deletable=0;editable=0;locked=1;connectable=0;" edge="1" parent="1" source="nY9At0rtFD_m7tp4O3Nv-12" target="nY9At0rtFD_m7tp4O3Nv-4">
          <mxGeometry width="50" height="50" relative="1" as="geometry">
            <mxPoint x="1300" y="1750" as="sourcePoint" />
            <mxPoint x="1350" y="1700" as="targetPoint" />
          </mxGeometry>
        </mxCell>
        <mxCell id="nY9At0rtFD_m7tp4O3Nv-15" value="&lt;span style=&quot;font-size: 16px;&quot;&gt;Doorms 214 Key,&lt;/span&gt;&lt;div&gt;&lt;span style=&quot;font-size: 16px;&quot;&gt;Unlocked&lt;/span&gt;&lt;/div&gt;" style="ellipse;whiteSpace=wrap;html=1;movable=0;resizable=0;rotatable=0;deletable=0;editable=0;locked=1;connectable=0;" vertex="1" parent="1">
          <mxGeometry x="1360" y="1760" width="160" height="120" as="geometry" />
        </mxCell>
        <mxCell id="nY9At0rtFD_m7tp4O3Nv-16" value="" style="endArrow=none;html=1;rounded=0;strokeWidth=7;movable=0;resizable=0;rotatable=0;deletable=0;editable=0;locked=1;connectable=0;" edge="1" parent="1">
          <mxGeometry width="50" height="50" relative="1" as="geometry">
            <mxPoint x="1919.4099999999999" y="2280" as="sourcePoint" />
            <mxPoint x="1919.4099999999999" y="1200" as="targetPoint" />
          </mxGeometry>
        </mxCell>
        <mxCell id="nY9At0rtFD_m7tp4O3Nv-17" value="" style="endArrow=none;html=1;rounded=0;strokeWidth=7;movable=0;resizable=0;rotatable=0;deletable=0;editable=0;locked=1;connectable=0;" edge="1" parent="1">
          <mxGeometry width="50" height="50" relative="1" as="geometry">
            <mxPoint x="3360" y="2280" as="sourcePoint" />
            <mxPoint x="3360" y="1200" as="targetPoint" />
          </mxGeometry>
        </mxCell>
        <mxCell id="mpVejXccl2PxX70iveuw-1" value="" style="endArrow=none;html=1;rounded=0;entryX=0;entryY=0.5;entryDx=0;entryDy=0;exitX=1;exitY=0.5;exitDx=0;exitDy=0;movable=0;resizable=0;rotatable=0;deletable=0;editable=0;locked=1;connectable=0;" edge="1" parent="1" source="XGN5cB1iPvMOFLCACEGZ-4" target="XGN5cB1iPvMOFLCACEGZ-8">
          <mxGeometry width="50" height="50" relative="1" as="geometry">
            <mxPoint x="1110" y="1350" as="sourcePoint" />
            <mxPoint x="1160" y="1300" as="targetPoint" />
          </mxGeometry>
        </mxCell>
        <mxCell id="n1byj2ywkpVGWD72KeUk-1" value="" style="endArrow=none;html=1;rounded=0;strokeWidth=7;movable=0;resizable=0;rotatable=0;deletable=0;editable=0;locked=1;connectable=0;" edge="1" parent="1">
          <mxGeometry width="50" height="50" relative="1" as="geometry">
            <mxPoint x="3360" y="1120" as="sourcePoint" />
            <mxPoint x="3360" y="40" as="targetPoint" />
          </mxGeometry>
        </mxCell>
        <mxCell id="n1byj2ywkpVGWD72KeUk-2" value="" style="endArrow=none;html=1;rounded=0;strokeWidth=7;movable=0;resizable=0;rotatable=0;deletable=0;editable=0;locked=1;connectable=0;" edge="1" parent="1">
          <mxGeometry width="50" height="50" relative="1" as="geometry">
            <mxPoint x="-80" y="1120" as="sourcePoint" />
            <mxPoint x="-80" y="40" as="targetPoint" />
          </mxGeometry>
        </mxCell>
        <mxCell id="n1byj2ywkpVGWD72KeUk-3" value="" style="endArrow=none;html=1;rounded=0;strokeWidth=7;movable=0;resizable=0;rotatable=0;deletable=0;editable=0;locked=1;connectable=0;" edge="1" parent="1">
          <mxGeometry width="50" height="50" relative="1" as="geometry">
            <mxPoint x="-80" y="2280" as="sourcePoint" />
            <mxPoint x="-80" y="1200" as="targetPoint" />
          </mxGeometry>
        </mxCell>
      </root>
    </mxGraphModel>
  </diagram>
  <diagram id="OMqI0itbLNV6B2_gvZ1M" name="Domain Model">
    <mxGraphModel dx="3023" dy="1976" grid="1" gridSize="10" guides="1" tooltips="1" connect="1" arrows="1" fold="1" page="1" pageScale="1" pageWidth="827" pageHeight="1169" math="0" shadow="0">
      <root>
        <mxCell id="0" />
        <mxCell id="1" parent="0" />
        <mxCell id="KzRqPHjCdzJjW4aYKLSY-1" value="Trader &amp;lt;Enum&amp;gt;" style="swimlane;fontStyle=0;childLayout=stackLayout;horizontal=1;startSize=30;horizontalStack=0;resizeParent=1;resizeParentMax=0;resizeLast=0;collapsible=1;marginBottom=0;whiteSpace=wrap;html=1;movable=0;resizable=0;rotatable=0;deletable=0;editable=0;locked=1;connectable=0;" vertex="1" parent="1">
          <mxGeometry x="40" y="40" width="160" height="60" as="geometry" />
        </mxCell>
        <mxCell id="KzRqPHjCdzJjW4aYKLSY-2" value="Value" style="text;strokeColor=none;fillColor=none;align=left;verticalAlign=middle;spacingLeft=4;spacingRight=4;overflow=hidden;points=[[0,0.5],[1,0.5]];portConstraint=eastwest;rotatable=0;whiteSpace=wrap;html=1;movable=0;resizable=0;deletable=0;editable=0;locked=1;connectable=0;" vertex="1" parent="KzRqPHjCdzJjW4aYKLSY-1">
          <mxGeometry y="30" width="160" height="30" as="geometry" />
        </mxCell>
        <mxCell id="hOzGS8fYy0nVyuilq28n-3" value="Quest Task" style="swimlane;fontStyle=0;childLayout=stackLayout;horizontal=1;startSize=30;horizontalStack=0;resizeParent=1;resizeParentMax=0;resizeLast=0;collapsible=1;marginBottom=0;whiteSpace=wrap;html=1;movable=0;resizable=0;rotatable=0;deletable=0;editable=0;locked=1;connectable=0;" vertex="1" parent="1">
          <mxGeometry x="320" y="40" width="160" height="90" as="geometry" />
        </mxCell>
        <mxCell id="jccgBm01xiByJt5KYO67-4" value="Desc" style="text;strokeColor=none;fillColor=none;align=left;verticalAlign=middle;spacingLeft=4;spacingRight=4;overflow=hidden;points=[[0,0.5],[1,0.5]];portConstraint=eastwest;rotatable=0;whiteSpace=wrap;html=1;movable=0;resizable=0;deletable=0;editable=0;locked=1;connectable=0;" vertex="1" parent="hOzGS8fYy0nVyuilq28n-3">
          <mxGeometry y="30" width="160" height="30" as="geometry" />
        </mxCell>
        <mxCell id="jccgBm01xiByJt5KYO67-3" value="Sequence" style="text;strokeColor=none;fillColor=none;align=left;verticalAlign=middle;spacingLeft=4;spacingRight=4;overflow=hidden;points=[[0,0.5],[1,0.5]];portConstraint=eastwest;rotatable=0;whiteSpace=wrap;html=1;movable=0;resizable=0;deletable=0;editable=0;locked=1;connectable=0;" vertex="1" parent="hOzGS8fYy0nVyuilq28n-3">
          <mxGeometry y="60" width="160" height="30" as="geometry" />
        </mxCell>
        <mxCell id="jccgBm01xiByJt5KYO67-6" value="Quest" style="swimlane;fontStyle=0;childLayout=stackLayout;horizontal=1;startSize=30;horizontalStack=0;resizeParent=1;resizeParentMax=0;resizeLast=0;collapsible=1;marginBottom=0;whiteSpace=wrap;html=1;movable=0;resizable=0;rotatable=0;deletable=0;editable=0;locked=1;connectable=0;" vertex="1" parent="1">
          <mxGeometry x="600" y="40" width="160" height="150" as="geometry" />
        </mxCell>
        <mxCell id="jccgBm01xiByJt5KYO67-7" value="Name" style="text;strokeColor=none;fillColor=none;align=left;verticalAlign=middle;spacingLeft=4;spacingRight=4;overflow=hidden;points=[[0,0.5],[1,0.5]];portConstraint=eastwest;rotatable=0;whiteSpace=wrap;html=1;movable=0;resizable=0;deletable=0;editable=0;locked=1;connectable=0;" vertex="1" parent="jccgBm01xiByJt5KYO67-6">
          <mxGeometry y="30" width="160" height="30" as="geometry" />
        </mxCell>
        <mxCell id="jccgBm01xiByJt5KYO67-9" value="IsActive" style="text;strokeColor=none;fillColor=none;align=left;verticalAlign=middle;spacingLeft=4;spacingRight=4;overflow=hidden;points=[[0,0.5],[1,0.5]];portConstraint=eastwest;rotatable=0;whiteSpace=wrap;html=1;movable=0;resizable=0;deletable=0;editable=0;locked=1;connectable=0;" vertex="1" parent="jccgBm01xiByJt5KYO67-6">
          <mxGeometry y="60" width="160" height="30" as="geometry" />
        </mxCell>
        <mxCell id="jccgBm01xiByJt5KYO67-10" value="IsComplete" style="text;strokeColor=none;fillColor=none;align=left;verticalAlign=middle;spacingLeft=4;spacingRight=4;overflow=hidden;points=[[0,0.5],[1,0.5]];portConstraint=eastwest;rotatable=0;whiteSpace=wrap;html=1;movable=0;resizable=0;deletable=0;editable=0;locked=1;connectable=0;" vertex="1" parent="jccgBm01xiByJt5KYO67-6">
          <mxGeometry y="90" width="160" height="30" as="geometry" />
        </mxCell>
        <mxCell id="VvNFt0-ixws_4MOnm0wb-1" value="Access" style="text;strokeColor=none;fillColor=none;align=left;verticalAlign=middle;spacingLeft=4;spacingRight=4;overflow=hidden;points=[[0,0.5],[1,0.5]];portConstraint=eastwest;rotatable=0;whiteSpace=wrap;html=1;movable=0;resizable=0;deletable=0;editable=0;locked=1;connectable=0;" vertex="1" parent="jccgBm01xiByJt5KYO67-6">
          <mxGeometry y="120" width="160" height="30" as="geometry" />
        </mxCell>
        <mxCell id="4VZaaZXvCug-c1CgZMTP-1" value="" style="endArrow=none;html=1;rounded=0;entryX=1;entryY=0.5;entryDx=0;entryDy=0;exitX=1;exitY=0.5;exitDx=0;exitDy=0;movable=0;resizable=0;rotatable=0;deletable=0;editable=0;locked=1;connectable=0;" edge="1" parent="jccgBm01xiByJt5KYO67-6" source="jccgBm01xiByJt5KYO67-7">
          <mxGeometry width="50" height="50" relative="1" as="geometry">
            <mxPoint x="210" y="50" as="sourcePoint" />
            <mxPoint x="160" y="75" as="targetPoint" />
            <Array as="points">
              <mxPoint x="200" y="45" />
              <mxPoint x="200" y="75" />
            </Array>
          </mxGeometry>
        </mxCell>
        <mxCell id="ENAlL1hlXCwOzTw1y4np-1" value="Quest, Prerequisite" style="swimlane;fontStyle=0;childLayout=stackLayout;horizontal=1;startSize=30;horizontalStack=0;resizeParent=1;resizeParentMax=0;resizeLast=0;collapsible=1;marginBottom=0;whiteSpace=wrap;html=1;movable=0;resizable=0;rotatable=0;deletable=0;editable=0;locked=1;connectable=0;" vertex="1" parent="1">
          <mxGeometry x="600" y="280" width="160" height="60" as="geometry" />
        </mxCell>
        <mxCell id="ENAlL1hlXCwOzTw1y4np-2" value="Requirement" style="text;strokeColor=none;fillColor=none;align=left;verticalAlign=middle;spacingLeft=4;spacingRight=4;overflow=hidden;points=[[0,0.5],[1,0.5]];portConstraint=eastwest;rotatable=0;whiteSpace=wrap;html=1;movable=0;resizable=0;deletable=0;editable=0;locked=1;connectable=0;" vertex="1" parent="ENAlL1hlXCwOzTw1y4np-1">
          <mxGeometry y="30" width="160" height="30" as="geometry" />
        </mxCell>
        <mxCell id="ksN1daZbFLAlWa93FXBu-1" value="Quest, Reward" style="swimlane;fontStyle=0;childLayout=stackLayout;horizontal=1;startSize=30;horizontalStack=0;resizeParent=1;resizeParentMax=0;resizeLast=0;collapsible=1;marginBottom=0;whiteSpace=wrap;html=1;movable=0;resizable=0;rotatable=0;deletable=0;editable=0;locked=1;connectable=0;" vertex="1" parent="1">
          <mxGeometry x="320" y="280" width="160" height="60" as="geometry" />
        </mxCell>
        <mxCell id="ksN1daZbFLAlWa93FXBu-2" value="Reward" style="text;strokeColor=none;fillColor=none;align=left;verticalAlign=middle;spacingLeft=4;spacingRight=4;overflow=hidden;points=[[0,0.5],[1,0.5]];portConstraint=eastwest;rotatable=0;whiteSpace=wrap;html=1;movable=0;resizable=0;deletable=0;editable=0;locked=1;connectable=0;" vertex="1" parent="ksN1daZbFLAlWa93FXBu-1">
          <mxGeometry y="30" width="160" height="30" as="geometry" />
        </mxCell>
        <mxCell id="ksN1daZbFLAlWa93FXBu-3" value="" style="endArrow=none;html=1;rounded=0;exitX=1;exitY=0.5;exitDx=0;exitDy=0;entryX=0;entryY=0.5;entryDx=0;entryDy=0;movable=0;resizable=0;rotatable=0;deletable=0;editable=0;locked=1;connectable=0;" edge="1" parent="1" source="KzRqPHjCdzJjW4aYKLSY-2">
          <mxGeometry width="50" height="50" relative="1" as="geometry">
            <mxPoint x="510" y="570" as="sourcePoint" />
            <mxPoint x="320" y="85" as="targetPoint" />
          </mxGeometry>
        </mxCell>
        <mxCell id="ksN1daZbFLAlWa93FXBu-7" value="1" style="text;html=1;align=center;verticalAlign=middle;whiteSpace=wrap;rounded=0;movable=0;resizable=0;rotatable=0;deletable=0;editable=0;locked=1;connectable=0;" vertex="1" parent="1">
          <mxGeometry x="200" y="60" width="40" height="20" as="geometry" />
        </mxCell>
        <mxCell id="ksN1daZbFLAlWa93FXBu-8" value="0 .. *" style="text;html=1;align=center;verticalAlign=middle;whiteSpace=wrap;rounded=0;movable=0;resizable=0;rotatable=0;deletable=0;editable=0;locked=1;connectable=0;" vertex="1" parent="1">
          <mxGeometry x="280" y="60" width="40" height="20" as="geometry" />
        </mxCell>
        <mxCell id="ksN1daZbFLAlWa93FXBu-9" value="" style="endArrow=none;html=1;rounded=0;entryX=0;entryY=0.5;entryDx=0;entryDy=0;exitX=1;exitY=0.5;exitDx=0;exitDy=0;movable=0;resizable=0;rotatable=0;deletable=0;editable=0;locked=1;connectable=0;" edge="1" parent="1" target="jccgBm01xiByJt5KYO67-7">
          <mxGeometry width="50" height="50" relative="1" as="geometry">
            <mxPoint x="480" y="85" as="sourcePoint" />
            <mxPoint x="380" y="-20" as="targetPoint" />
          </mxGeometry>
        </mxCell>
        <mxCell id="ksN1daZbFLAlWa93FXBu-10" value="1 .. *" style="text;html=1;align=center;verticalAlign=middle;whiteSpace=wrap;rounded=0;movable=0;resizable=0;rotatable=0;deletable=0;editable=0;locked=1;connectable=0;" vertex="1" parent="1">
          <mxGeometry x="480" y="60" width="40" height="20" as="geometry" />
        </mxCell>
        <mxCell id="ksN1daZbFLAlWa93FXBu-11" value="1" style="text;html=1;align=center;verticalAlign=middle;whiteSpace=wrap;rounded=0;movable=0;resizable=0;rotatable=0;deletable=0;editable=0;locked=1;connectable=0;" vertex="1" parent="1">
          <mxGeometry x="560" y="60" width="40" height="20" as="geometry" />
        </mxCell>
        <mxCell id="ksN1daZbFLAlWa93FXBu-12" value="" style="endArrow=none;html=1;rounded=0;entryX=1;entryY=0.5;entryDx=0;entryDy=0;exitX=1;exitY=0.5;exitDx=0;exitDy=0;movable=0;resizable=0;rotatable=0;deletable=0;editable=0;locked=1;connectable=0;" edge="1" parent="1" source="ENAlL1hlXCwOzTw1y4np-2" target="VvNFt0-ixws_4MOnm0wb-1">
          <mxGeometry width="50" height="50" relative="1" as="geometry">
            <mxPoint x="500" y="260" as="sourcePoint" />
            <mxPoint x="550" y="210" as="targetPoint" />
            <Array as="points">
              <mxPoint x="800" y="325" />
              <mxPoint x="800" y="175" />
            </Array>
          </mxGeometry>
        </mxCell>
        <mxCell id="ksN1daZbFLAlWa93FXBu-13" value="1" style="text;html=1;align=center;verticalAlign=middle;whiteSpace=wrap;rounded=0;movable=0;resizable=0;rotatable=0;deletable=0;editable=0;locked=1;connectable=0;" vertex="1" parent="1">
          <mxGeometry x="760" y="180" width="40" height="20" as="geometry" />
        </mxCell>
        <mxCell id="ksN1daZbFLAlWa93FXBu-14" value="0 .. *" style="text;html=1;align=center;verticalAlign=middle;whiteSpace=wrap;rounded=0;movable=0;resizable=0;rotatable=0;deletable=0;editable=0;locked=1;connectable=0;" vertex="1" parent="1">
          <mxGeometry x="760" y="330" width="40" height="20" as="geometry" />
        </mxCell>
        <mxCell id="ksN1daZbFLAlWa93FXBu-15" value="" style="endArrow=none;html=1;rounded=0;entryX=0;entryY=0.5;entryDx=0;entryDy=0;exitX=1;exitY=0.5;exitDx=0;exitDy=0;movable=0;resizable=0;rotatable=0;deletable=0;editable=0;locked=1;connectable=0;" edge="1" parent="1" source="ksN1daZbFLAlWa93FXBu-2" target="VvNFt0-ixws_4MOnm0wb-1">
          <mxGeometry width="50" height="50" relative="1" as="geometry">
            <mxPoint x="390" y="200" as="sourcePoint" />
            <mxPoint x="440" y="150" as="targetPoint" />
            <Array as="points">
              <mxPoint x="560" y="325" />
              <mxPoint x="560" y="175" />
            </Array>
          </mxGeometry>
        </mxCell>
        <mxCell id="ksN1daZbFLAlWa93FXBu-16" value="1" style="text;html=1;align=center;verticalAlign=middle;whiteSpace=wrap;rounded=0;movable=0;resizable=0;rotatable=0;deletable=0;editable=0;locked=1;connectable=0;" vertex="1" parent="1">
          <mxGeometry x="560" y="150" width="40" height="20" as="geometry" />
        </mxCell>
        <mxCell id="ksN1daZbFLAlWa93FXBu-17" value="0 .. *" style="text;html=1;align=center;verticalAlign=middle;whiteSpace=wrap;rounded=0;movable=0;resizable=0;rotatable=0;deletable=0;editable=0;locked=1;connectable=0;" vertex="1" parent="1">
          <mxGeometry x="480" y="330" width="40" height="20" as="geometry" />
        </mxCell>
        <mxCell id="sq6UjEfc8S7LKzqgtccL-1" value="" style="endArrow=none;html=1;rounded=0;strokeWidth=7;movable=0;resizable=0;rotatable=0;deletable=0;editable=0;locked=1;connectable=0;" edge="1" parent="1">
          <mxGeometry width="50" height="50" relative="1" as="geometry">
            <mxPoint x="880" y="680" as="sourcePoint" />
            <mxPoint x="880" y="40" as="targetPoint" />
          </mxGeometry>
        </mxCell>
        <mxCell id="4VZaaZXvCug-c1CgZMTP-2" value="0 .. *" style="text;html=1;align=center;verticalAlign=middle;whiteSpace=wrap;rounded=0;movable=0;resizable=0;rotatable=0;deletable=0;editable=0;locked=1;connectable=0;" vertex="1" parent="1">
          <mxGeometry x="760" y="60" width="40" height="20" as="geometry" />
        </mxCell>
        <mxCell id="LGQoVEv-e6GcXyNmjuzR-1" value="Marker" style="swimlane;fontStyle=0;childLayout=stackLayout;horizontal=1;startSize=30;horizontalStack=0;resizeParent=1;resizeParentMax=0;resizeLast=0;collapsible=1;marginBottom=0;whiteSpace=wrap;html=1;movable=0;resizable=0;rotatable=0;deletable=0;editable=0;locked=1;connectable=0;" vertex="1" parent="1">
          <mxGeometry x="1000" y="40" width="160" height="120" as="geometry" />
        </mxCell>
        <mxCell id="LGQoVEv-e6GcXyNmjuzR-3" value="Shape" style="text;strokeColor=none;fillColor=none;align=left;verticalAlign=middle;spacingLeft=4;spacingRight=4;overflow=hidden;points=[[0,0.5],[1,0.5]];portConstraint=eastwest;rotatable=0;whiteSpace=wrap;html=1;movable=0;resizable=0;deletable=0;editable=0;locked=1;connectable=0;" vertex="1" parent="LGQoVEv-e6GcXyNmjuzR-1">
          <mxGeometry y="30" width="160" height="30" as="geometry" />
        </mxCell>
        <mxCell id="LGQoVEv-e6GcXyNmjuzR-4" value="GroupId" style="text;strokeColor=none;fillColor=none;align=left;verticalAlign=middle;spacingLeft=4;spacingRight=4;overflow=hidden;points=[[0,0.5],[1,0.5]];portConstraint=eastwest;rotatable=0;whiteSpace=wrap;html=1;movable=0;resizable=0;deletable=0;editable=0;locked=1;connectable=0;" vertex="1" parent="LGQoVEv-e6GcXyNmjuzR-1">
          <mxGeometry y="60" width="160" height="30" as="geometry" />
        </mxCell>
        <mxCell id="LGQoVEv-e6GcXyNmjuzR-5" value="Desc" style="text;strokeColor=none;fillColor=none;align=left;verticalAlign=middle;spacingLeft=4;spacingRight=4;overflow=hidden;points=[[0,0.5],[1,0.5]];portConstraint=eastwest;rotatable=0;whiteSpace=wrap;html=1;movable=0;resizable=0;deletable=0;editable=0;locked=1;connectable=0;" vertex="1" parent="LGQoVEv-e6GcXyNmjuzR-1">
          <mxGeometry y="90" width="160" height="30" as="geometry" />
        </mxCell>
        <mxCell id="2qoc84ADvEmPvhP_2qXV-1" value="BTR Stop" style="swimlane;fontStyle=0;childLayout=stackLayout;horizontal=1;startSize=30;horizontalStack=0;resizeParent=1;resizeParentMax=0;resizeLast=0;collapsible=1;marginBottom=0;whiteSpace=wrap;html=1;movable=0;resizable=0;rotatable=0;deletable=0;editable=0;locked=1;connectable=0;" vertex="1" parent="1">
          <mxGeometry x="1560" y="40" width="160" height="60" as="geometry" />
        </mxCell>
        <mxCell id="2qoc84ADvEmPvhP_2qXV-2" value="Location" style="text;strokeColor=none;fillColor=none;align=left;verticalAlign=middle;spacingLeft=4;spacingRight=4;overflow=hidden;points=[[0,0.5],[1,0.5]];portConstraint=eastwest;rotatable=0;whiteSpace=wrap;html=1;movable=0;resizable=0;deletable=0;editable=0;locked=1;connectable=0;" vertex="1" parent="2qoc84ADvEmPvhP_2qXV-1">
          <mxGeometry y="30" width="160" height="30" as="geometry" />
        </mxCell>
        <mxCell id="IDCNVb7ykKR9qJ5qwZM7-1" value="Map &amp;lt;Enum&amp;gt;" style="swimlane;fontStyle=0;childLayout=stackLayout;horizontal=1;startSize=30;horizontalStack=0;resizeParent=1;resizeParentMax=0;resizeLast=0;collapsible=1;marginBottom=0;whiteSpace=wrap;html=1;movable=0;resizable=0;rotatable=0;deletable=0;editable=0;locked=1;connectable=0;" vertex="1" parent="1">
          <mxGeometry x="1280" y="40" width="160" height="90" as="geometry" />
        </mxCell>
        <mxCell id="IDCNVb7ykKR9qJ5qwZM7-2" value="Value" style="text;strokeColor=none;fillColor=none;align=left;verticalAlign=middle;spacingLeft=4;spacingRight=4;overflow=hidden;points=[[0,0.5],[1,0.5]];portConstraint=eastwest;rotatable=0;whiteSpace=wrap;html=1;movable=0;resizable=0;deletable=0;editable=0;locked=1;connectable=0;" vertex="1" parent="IDCNVb7ykKR9qJ5qwZM7-1">
          <mxGeometry y="30" width="160" height="30" as="geometry" />
        </mxCell>
        <mxCell id="hJZ9ml49T1p3ObvBeity-1" style="text;strokeColor=none;fillColor=none;align=left;verticalAlign=middle;spacingLeft=4;spacingRight=4;overflow=hidden;points=[[0,0.5],[1,0.5]];portConstraint=eastwest;rotatable=0;whiteSpace=wrap;html=1;movable=0;resizable=0;deletable=0;editable=0;locked=1;connectable=0;" vertex="1" parent="IDCNVb7ykKR9qJ5qwZM7-1">
          <mxGeometry y="60" width="160" height="30" as="geometry" />
        </mxCell>
        <mxCell id="7vu2EVi_eOgzvIW9PSnQ-1" value="Extraction" style="swimlane;fontStyle=0;childLayout=stackLayout;horizontal=1;startSize=30;horizontalStack=0;resizeParent=1;resizeParentMax=0;resizeLast=0;collapsible=1;marginBottom=0;whiteSpace=wrap;html=1;movable=0;resizable=0;rotatable=0;deletable=0;editable=0;locked=1;connectable=0;" vertex="1" parent="1">
          <mxGeometry x="1560" y="240" width="160" height="90" as="geometry" />
        </mxCell>
        <mxCell id="7vu2EVi_eOgzvIW9PSnQ-2" value="Name" style="text;strokeColor=none;fillColor=none;align=left;verticalAlign=middle;spacingLeft=4;spacingRight=4;overflow=hidden;points=[[0,0.5],[1,0.5]];portConstraint=eastwest;rotatable=0;whiteSpace=wrap;html=1;movable=0;resizable=0;deletable=0;editable=0;locked=1;connectable=0;" vertex="1" parent="7vu2EVi_eOgzvIW9PSnQ-1">
          <mxGeometry y="30" width="160" height="30" as="geometry" />
        </mxCell>
        <mxCell id="7vu2EVi_eOgzvIW9PSnQ-3" value="Type" style="text;strokeColor=none;fillColor=none;align=left;verticalAlign=middle;spacingLeft=4;spacingRight=4;overflow=hidden;points=[[0,0.5],[1,0.5]];portConstraint=eastwest;rotatable=0;whiteSpace=wrap;html=1;movable=0;resizable=0;deletable=0;editable=0;locked=1;connectable=0;" vertex="1" parent="7vu2EVi_eOgzvIW9PSnQ-1">
          <mxGeometry y="60" width="160" height="30" as="geometry" />
        </mxCell>
        <mxCell id="7vu2EVi_eOgzvIW9PSnQ-5" value="Extraction, Requirement" style="swimlane;fontStyle=0;childLayout=stackLayout;horizontal=1;startSize=30;horizontalStack=0;resizeParent=1;resizeParentMax=0;resizeLast=0;collapsible=1;marginBottom=0;whiteSpace=wrap;html=1;movable=0;resizable=0;rotatable=0;deletable=0;editable=0;locked=1;connectable=0;" vertex="1" parent="1">
          <mxGeometry x="1560" y="400" width="160" height="60" as="geometry" />
        </mxCell>
        <mxCell id="7vu2EVi_eOgzvIW9PSnQ-6" value="Requirement" style="text;strokeColor=none;fillColor=none;align=left;verticalAlign=middle;spacingLeft=4;spacingRight=4;overflow=hidden;points=[[0,0.5],[1,0.5]];portConstraint=eastwest;rotatable=0;whiteSpace=wrap;html=1;movable=0;resizable=0;deletable=0;editable=0;locked=1;connectable=0;" vertex="1" parent="7vu2EVi_eOgzvIW9PSnQ-5">
          <mxGeometry y="30" width="160" height="30" as="geometry" />
        </mxCell>
        <mxCell id="iUAofu5v_hxX2jBBY-PT-1" value="AccessKey" style="swimlane;fontStyle=0;childLayout=stackLayout;horizontal=1;startSize=30;horizontalStack=0;resizeParent=1;resizeParentMax=0;resizeLast=0;collapsible=1;marginBottom=0;whiteSpace=wrap;html=1;movable=0;resizable=0;rotatable=0;deletable=0;editable=0;locked=1;connectable=0;" vertex="1" parent="1">
          <mxGeometry x="1000" y="240" width="160" height="90" as="geometry" />
        </mxCell>
        <mxCell id="iUAofu5v_hxX2jBBY-PT-2" value="Name" style="text;strokeColor=none;fillColor=none;align=left;verticalAlign=middle;spacingLeft=4;spacingRight=4;overflow=hidden;points=[[0,0.5],[1,0.5]];portConstraint=eastwest;rotatable=0;whiteSpace=wrap;html=1;movable=0;resizable=0;deletable=0;editable=0;locked=1;connectable=0;" vertex="1" parent="iUAofu5v_hxX2jBBY-PT-1">
          <mxGeometry y="30" width="160" height="30" as="geometry" />
        </mxCell>
        <mxCell id="WdLmRQoz4SQYiMNrM-Sq-2" style="text;strokeColor=none;fillColor=none;align=left;verticalAlign=middle;spacingLeft=4;spacingRight=4;overflow=hidden;points=[[0,0.5],[1,0.5]];portConstraint=eastwest;rotatable=0;whiteSpace=wrap;html=1;movable=0;resizable=0;deletable=0;editable=0;locked=1;connectable=0;" vertex="1" parent="iUAofu5v_hxX2jBBY-PT-1">
          <mxGeometry y="60" width="160" height="30" as="geometry" />
        </mxCell>
        <mxCell id="iUAofu5v_hxX2jBBY-PT-4" value="AccessKey, Loot" style="swimlane;fontStyle=0;childLayout=stackLayout;horizontal=1;startSize=30;horizontalStack=0;resizeParent=1;resizeParentMax=0;resizeLast=0;collapsible=1;marginBottom=0;whiteSpace=wrap;html=1;movable=0;resizable=0;rotatable=0;deletable=0;editable=0;locked=1;connectable=0;" vertex="1" parent="1">
          <mxGeometry x="1000" y="400" width="160" height="90" as="geometry" />
        </mxCell>
        <mxCell id="iUAofu5v_hxX2jBBY-PT-5" value="Loot" style="text;strokeColor=none;fillColor=none;align=left;verticalAlign=middle;spacingLeft=4;spacingRight=4;overflow=hidden;points=[[0,0.5],[1,0.5]];portConstraint=eastwest;rotatable=0;whiteSpace=wrap;html=1;movable=0;resizable=0;deletable=0;editable=0;locked=1;connectable=0;" vertex="1" parent="iUAofu5v_hxX2jBBY-PT-4">
          <mxGeometry y="30" width="160" height="30" as="geometry" />
        </mxCell>
        <mxCell id="iUAofu5v_hxX2jBBY-PT-6" value="Quantity" style="text;strokeColor=none;fillColor=none;align=left;verticalAlign=middle;spacingLeft=4;spacingRight=4;overflow=hidden;points=[[0,0.5],[1,0.5]];portConstraint=eastwest;rotatable=0;whiteSpace=wrap;html=1;movable=0;resizable=0;deletable=0;editable=0;locked=1;connectable=0;" vertex="1" parent="iUAofu5v_hxX2jBBY-PT-4">
          <mxGeometry y="60" width="160" height="30" as="geometry" />
        </mxCell>
        <mxCell id="9xXN2rM7yi4m7sU0EPkI-1" value="&lt;font style=&quot;font-size: 30px;&quot;&gt;QUEST&lt;/font&gt;" style="rounded=1;whiteSpace=wrap;html=1;movable=0;resizable=0;rotatable=0;deletable=0;editable=0;locked=1;connectable=0;" vertex="1" parent="1">
          <mxGeometry x="40" y="600" width="800" height="80" as="geometry" />
        </mxCell>
        <mxCell id="4BmQNlCXm2Ztb05vBVI_-1" value="&lt;span style=&quot;font-size: 30px;&quot;&gt;MAP + EXTRACTION + ACCESSKEY&lt;/span&gt;" style="rounded=1;whiteSpace=wrap;html=1;movable=0;resizable=0;rotatable=0;deletable=0;editable=0;locked=1;connectable=0;" vertex="1" parent="1">
          <mxGeometry x="920" y="600" width="880" height="80" as="geometry" />
        </mxCell>
        <mxCell id="ej1EY6Qo67NiCp4EDiOz-1" value="" style="endArrow=none;html=1;rounded=0;entryX=1;entryY=0.5;entryDx=0;entryDy=0;exitX=0;exitY=0.5;exitDx=0;exitDy=0;movable=0;resizable=0;rotatable=0;deletable=0;editable=0;locked=1;connectable=0;" edge="1" parent="1" source="IDCNVb7ykKR9qJ5qwZM7-2" target="LGQoVEv-e6GcXyNmjuzR-3">
          <mxGeometry width="50" height="50" relative="1" as="geometry">
            <mxPoint x="1060" y="350" as="sourcePoint" />
            <mxPoint x="1110" y="300" as="targetPoint" />
          </mxGeometry>
        </mxCell>
        <mxCell id="ej1EY6Qo67NiCp4EDiOz-2" value="0 .. *" style="text;html=1;align=center;verticalAlign=middle;whiteSpace=wrap;rounded=0;movable=0;resizable=0;rotatable=0;deletable=0;editable=0;locked=1;connectable=0;" vertex="1" parent="1">
          <mxGeometry x="1160" y="60" width="40" height="20" as="geometry" />
        </mxCell>
        <mxCell id="ej1EY6Qo67NiCp4EDiOz-3" value="1" style="text;html=1;align=center;verticalAlign=middle;whiteSpace=wrap;rounded=0;movable=0;resizable=0;rotatable=0;deletable=0;editable=0;locked=1;connectable=0;" vertex="1" parent="1">
          <mxGeometry x="1240" y="60" width="40" height="20" as="geometry" />
        </mxCell>
        <mxCell id="ej1EY6Qo67NiCp4EDiOz-4" value="" style="endArrow=none;html=1;rounded=0;entryX=0;entryY=0.5;entryDx=0;entryDy=0;exitX=1;exitY=0.5;exitDx=0;exitDy=0;movable=0;resizable=0;rotatable=0;deletable=0;editable=0;locked=1;connectable=0;" edge="1" parent="1" source="IDCNVb7ykKR9qJ5qwZM7-2" target="2qoc84ADvEmPvhP_2qXV-2">
          <mxGeometry width="50" height="50" relative="1" as="geometry">
            <mxPoint x="1310" y="350" as="sourcePoint" />
            <mxPoint x="1360" y="300" as="targetPoint" />
          </mxGeometry>
        </mxCell>
        <mxCell id="ej1EY6Qo67NiCp4EDiOz-5" value="1" style="text;html=1;align=center;verticalAlign=middle;whiteSpace=wrap;rounded=0;movable=0;resizable=0;rotatable=0;deletable=0;editable=0;locked=1;connectable=0;" vertex="1" parent="1">
          <mxGeometry x="1440" y="60" width="40" height="20" as="geometry" />
        </mxCell>
        <mxCell id="ej1EY6Qo67NiCp4EDiOz-6" value="0 .. *" style="text;html=1;align=center;verticalAlign=middle;whiteSpace=wrap;rounded=0;movable=0;resizable=0;rotatable=0;deletable=0;editable=0;locked=1;connectable=0;" vertex="1" parent="1">
          <mxGeometry x="1520" y="60" width="40" height="20" as="geometry" />
        </mxCell>
        <mxCell id="ej1EY6Qo67NiCp4EDiOz-7" value="" style="endArrow=none;html=1;rounded=0;entryX=0;entryY=0.5;entryDx=0;entryDy=0;exitX=1;exitY=0.5;exitDx=0;exitDy=0;movable=0;resizable=0;rotatable=0;deletable=0;editable=0;locked=1;connectable=0;" edge="1" parent="1" source="hJZ9ml49T1p3ObvBeity-1" target="7vu2EVi_eOgzvIW9PSnQ-2">
          <mxGeometry width="50" height="50" relative="1" as="geometry">
            <mxPoint x="1430" y="180" as="sourcePoint" />
            <mxPoint x="1280" y="300" as="targetPoint" />
            <Array as="points">
              <mxPoint x="1480" y="115" />
              <mxPoint x="1480" y="285" />
            </Array>
          </mxGeometry>
        </mxCell>
        <mxCell id="hJZ9ml49T1p3ObvBeity-3" value="" style="endArrow=none;html=1;rounded=0;exitX=1;exitY=0.5;exitDx=0;exitDy=0;entryX=0;entryY=0.5;entryDx=0;entryDy=0;movable=0;resizable=0;rotatable=0;deletable=0;editable=0;locked=1;connectable=0;" edge="1" parent="1" source="iUAofu5v_hxX2jBBY-PT-2" target="hJZ9ml49T1p3ObvBeity-1">
          <mxGeometry width="50" height="50" relative="1" as="geometry">
            <mxPoint x="1310" y="350" as="sourcePoint" />
            <mxPoint x="1360" y="300" as="targetPoint" />
            <Array as="points">
              <mxPoint x="1240" y="285" />
              <mxPoint x="1240" y="115" />
            </Array>
          </mxGeometry>
        </mxCell>
        <mxCell id="hJZ9ml49T1p3ObvBeity-4" value="1" style="text;html=1;align=center;verticalAlign=middle;whiteSpace=wrap;rounded=0;movable=0;resizable=0;rotatable=0;deletable=0;editable=0;locked=1;connectable=0;" vertex="1" parent="1">
          <mxGeometry x="1241" y="120" width="40" height="20" as="geometry" />
        </mxCell>
        <mxCell id="hJZ9ml49T1p3ObvBeity-5" value="1 .. *" style="text;html=1;align=center;verticalAlign=middle;whiteSpace=wrap;rounded=0;movable=0;resizable=0;rotatable=0;deletable=0;editable=0;locked=1;connectable=0;" vertex="1" parent="1">
          <mxGeometry x="1160" y="260" width="40" height="20" as="geometry" />
        </mxCell>
        <mxCell id="hJZ9ml49T1p3ObvBeity-6" value="1" style="text;html=1;align=center;verticalAlign=middle;whiteSpace=wrap;rounded=0;movable=0;resizable=0;rotatable=0;deletable=0;editable=0;locked=1;connectable=0;" vertex="1" parent="1">
          <mxGeometry x="1440" y="120" width="40" height="20" as="geometry" />
        </mxCell>
        <mxCell id="hJZ9ml49T1p3ObvBeity-7" value="1 .. *" style="text;html=1;align=center;verticalAlign=middle;whiteSpace=wrap;rounded=0;movable=0;resizable=0;rotatable=0;deletable=0;editable=0;locked=1;connectable=0;" vertex="1" parent="1">
          <mxGeometry x="1520" y="260" width="40" height="20" as="geometry" />
        </mxCell>
        <mxCell id="hJZ9ml49T1p3ObvBeity-8" value="" style="endArrow=none;html=1;rounded=0;strokeWidth=7;movable=0;resizable=0;rotatable=0;deletable=0;editable=0;locked=1;connectable=0;" edge="1" parent="1">
          <mxGeometry width="50" height="50" relative="1" as="geometry">
            <mxPoint x="1840" y="680" as="sourcePoint" />
            <mxPoint x="1840" y="40" as="targetPoint" />
          </mxGeometry>
        </mxCell>
        <mxCell id="RoSac9WwBZUKWYJOtIDC-1" value="" style="endArrow=none;html=1;rounded=0;strokeWidth=7;movable=0;resizable=0;rotatable=0;deletable=0;editable=0;locked=1;connectable=0;" edge="1" parent="1">
          <mxGeometry width="50" height="50" relative="1" as="geometry">
            <mxPoint x="-40" y="720" as="sourcePoint" />
            <mxPoint x="1800" y="720" as="targetPoint" />
          </mxGeometry>
        </mxCell>
        <mxCell id="WdLmRQoz4SQYiMNrM-Sq-1" value="" style="endArrow=none;html=1;rounded=0;entryX=1;entryY=0.5;entryDx=0;entryDy=0;exitX=1;exitY=0.5;exitDx=0;exitDy=0;movable=0;resizable=0;rotatable=0;deletable=0;editable=0;locked=1;connectable=0;" edge="1" parent="1" source="iUAofu5v_hxX2jBBY-PT-5" target="WdLmRQoz4SQYiMNrM-Sq-2">
          <mxGeometry width="50" height="50" relative="1" as="geometry">
            <mxPoint x="1280" y="430" as="sourcePoint" />
            <mxPoint x="1330" y="380" as="targetPoint" />
            <Array as="points">
              <mxPoint x="1200" y="445" />
              <mxPoint x="1200" y="315" />
            </Array>
          </mxGeometry>
        </mxCell>
        <mxCell id="WdLmRQoz4SQYiMNrM-Sq-3" value="" style="endArrow=none;html=1;rounded=0;entryX=0;entryY=0.5;entryDx=0;entryDy=0;exitX=0;exitY=0.5;exitDx=0;exitDy=0;movable=0;resizable=0;rotatable=0;deletable=0;editable=0;locked=1;connectable=0;" edge="1" parent="1" source="7vu2EVi_eOgzvIW9PSnQ-6" target="7vu2EVi_eOgzvIW9PSnQ-3">
          <mxGeometry width="50" height="50" relative="1" as="geometry">
            <mxPoint x="1410" y="350" as="sourcePoint" />
            <mxPoint x="1460" y="300" as="targetPoint" />
            <Array as="points">
              <mxPoint x="1520" y="445" />
              <mxPoint x="1520" y="315" />
            </Array>
          </mxGeometry>
        </mxCell>
        <mxCell id="WdLmRQoz4SQYiMNrM-Sq-4" value="1" style="text;html=1;align=center;verticalAlign=middle;whiteSpace=wrap;rounded=0;movable=0;resizable=0;rotatable=0;deletable=0;editable=0;locked=1;connectable=0;" vertex="1" parent="1">
          <mxGeometry x="1520" y="320" width="40" height="20" as="geometry" />
        </mxCell>
        <mxCell id="WdLmRQoz4SQYiMNrM-Sq-5" value="0 .. *" style="text;html=1;align=center;verticalAlign=middle;whiteSpace=wrap;rounded=0;movable=0;resizable=0;rotatable=0;deletable=0;editable=0;locked=1;connectable=0;" vertex="1" parent="1">
          <mxGeometry x="1520" y="450" width="40" height="20" as="geometry" />
        </mxCell>
        <mxCell id="WdLmRQoz4SQYiMNrM-Sq-6" value="1" style="text;html=1;align=center;verticalAlign=middle;whiteSpace=wrap;rounded=0;movable=0;resizable=0;rotatable=0;deletable=0;editable=0;locked=1;connectable=0;" vertex="1" parent="1">
          <mxGeometry x="1160" y="320" width="40" height="20" as="geometry" />
        </mxCell>
        <mxCell id="WdLmRQoz4SQYiMNrM-Sq-7" value="0 .. *" style="text;html=1;align=center;verticalAlign=middle;whiteSpace=wrap;rounded=0;movable=0;resizable=0;rotatable=0;deletable=0;editable=0;locked=1;connectable=0;" vertex="1" parent="1">
          <mxGeometry x="1160" y="450" width="40" height="20" as="geometry" />
        </mxCell>
        <mxCell id="WdLmRQoz4SQYiMNrM-Sq-8" value="" style="endArrow=none;html=1;rounded=0;exitX=1;exitY=0.5;exitDx=0;exitDy=0;entryX=0;entryY=0.5;entryDx=0;entryDy=0;movable=0;resizable=0;rotatable=0;deletable=0;editable=0;locked=1;connectable=0;" edge="1" parent="1" source="jccgBm01xiByJt5KYO67-10" target="iUAofu5v_hxX2jBBY-PT-2">
          <mxGeometry width="50" height="50" relative="1" as="geometry">
            <mxPoint x="930" y="270" as="sourcePoint" />
            <mxPoint x="980" y="220" as="targetPoint" />
            <Array as="points">
              <mxPoint x="920" y="145" />
              <mxPoint x="920" y="285" />
            </Array>
          </mxGeometry>
        </mxCell>
        <mxCell id="WdLmRQoz4SQYiMNrM-Sq-10" value="0 .. *" style="text;html=1;align=center;verticalAlign=middle;whiteSpace=wrap;rounded=0;movable=0;resizable=0;rotatable=0;deletable=0;editable=0;locked=1;connectable=0;" vertex="1" parent="1">
          <mxGeometry x="760" y="150" width="40" height="20" as="geometry" />
        </mxCell>
        <mxCell id="mx4MdoKDhOV3B-DaPuhB-1" value="0 .. *" style="text;html=1;align=center;verticalAlign=middle;whiteSpace=wrap;rounded=0;movable=0;resizable=0;rotatable=0;deletable=0;editable=0;locked=1;connectable=0;" vertex="1" parent="1">
          <mxGeometry x="960" y="260" width="40" height="20" as="geometry" />
        </mxCell>
        <mxCell id="1Nh7RvlE5gNrWcyIZgV8-1" value="&lt;font style=&quot;font-size: 30px;&quot;&gt;HIDEOUT&lt;/font&gt;" style="rounded=1;whiteSpace=wrap;html=1;movable=0;resizable=0;rotatable=0;deletable=0;editable=0;locked=1;connectable=0;" vertex="1" parent="1">
          <mxGeometry x="40" y="1320" width="800" height="80" as="geometry" />
        </mxCell>
        <mxCell id="1Nh7RvlE5gNrWcyIZgV8-2" value="" style="endArrow=none;html=1;rounded=0;strokeWidth=7;movable=0;resizable=0;rotatable=0;deletable=0;editable=0;locked=1;connectable=0;" edge="1" parent="1">
          <mxGeometry width="50" height="50" relative="1" as="geometry">
            <mxPoint x="880" y="1400" as="sourcePoint" />
            <mxPoint x="880" y="760" as="targetPoint" />
          </mxGeometry>
        </mxCell>
        <mxCell id="1Nh7RvlE5gNrWcyIZgV8-3" value="&lt;font style=&quot;font-size: 30px;&quot;&gt;KEYBIND&lt;/font&gt;" style="rounded=1;whiteSpace=wrap;html=1;movable=0;resizable=0;rotatable=0;deletable=0;editable=0;locked=1;connectable=0;" vertex="1" parent="1">
          <mxGeometry x="920" y="1320" width="320" height="80" as="geometry" />
        </mxCell>
        <mxCell id="1Nh7RvlE5gNrWcyIZgV8-4" value="AccessKey" style="swimlane;fontStyle=0;childLayout=stackLayout;horizontal=1;startSize=30;horizontalStack=0;resizeParent=1;resizeParentMax=0;resizeLast=0;collapsible=1;marginBottom=0;whiteSpace=wrap;html=1;movable=0;resizable=0;rotatable=0;deletable=0;editable=0;locked=1;connectable=0;" vertex="1" parent="1">
          <mxGeometry x="1000" y="760" width="160" height="90" as="geometry" />
        </mxCell>
        <mxCell id="1Nh7RvlE5gNrWcyIZgV8-5" value="Name" style="text;strokeColor=none;fillColor=none;align=left;verticalAlign=middle;spacingLeft=4;spacingRight=4;overflow=hidden;points=[[0,0.5],[1,0.5]];portConstraint=eastwest;rotatable=0;whiteSpace=wrap;html=1;movable=0;resizable=0;deletable=0;editable=0;locked=1;connectable=0;" vertex="1" parent="1Nh7RvlE5gNrWcyIZgV8-4">
          <mxGeometry y="30" width="160" height="30" as="geometry" />
        </mxCell>
        <mxCell id="1Nh7RvlE5gNrWcyIZgV8-6" style="text;strokeColor=none;fillColor=none;align=left;verticalAlign=middle;spacingLeft=4;spacingRight=4;overflow=hidden;points=[[0,0.5],[1,0.5]];portConstraint=eastwest;rotatable=0;whiteSpace=wrap;html=1;movable=0;resizable=0;deletable=0;editable=0;locked=1;connectable=0;" vertex="1" parent="1Nh7RvlE5gNrWcyIZgV8-4">
          <mxGeometry y="60" width="160" height="30" as="geometry" />
        </mxCell>
        <mxCell id="bTRzBacoiHmME01YhxDJ-1" value="" style="endArrow=none;html=1;rounded=0;strokeWidth=7;movable=0;resizable=0;rotatable=0;deletable=0;editable=0;locked=1;connectable=0;" edge="1" parent="1">
          <mxGeometry width="50" height="50" relative="1" as="geometry">
            <mxPoint x="-80" y="680" as="sourcePoint" />
            <mxPoint x="-80" y="40" as="targetPoint" />
          </mxGeometry>
        </mxCell>
        <mxCell id="bTRzBacoiHmME01YhxDJ-2" value="" style="endArrow=none;html=1;rounded=0;strokeWidth=7;movable=0;resizable=0;rotatable=0;deletable=0;editable=0;locked=1;connectable=0;" edge="1" parent="1">
          <mxGeometry width="50" height="50" relative="1" as="geometry">
            <mxPoint x="-80" y="1400" as="sourcePoint" />
            <mxPoint x="-80" y="760" as="targetPoint" />
          </mxGeometry>
        </mxCell>
        <mxCell id="Nf0rtf4oXvlYweT1jAp9-1" value="" style="endArrow=none;html=1;rounded=0;strokeWidth=7;movable=0;resizable=0;rotatable=0;deletable=0;editable=0;locked=1;connectable=0;" edge="1" parent="1">
          <mxGeometry width="50" height="50" relative="1" as="geometry">
            <mxPoint x="1279.2" y="1400" as="sourcePoint" />
            <mxPoint x="1279.2" y="760" as="targetPoint" />
          </mxGeometry>
        </mxCell>
      </root>
    </mxGraphModel>
  </diagram>
  <diagram id="uAfgexXyMbpcK8Kexsdm" name="DCD - Design Class Diagram">
    <mxGraphModel dx="1098" dy="988" grid="1" gridSize="10" guides="1" tooltips="1" connect="1" arrows="1" fold="1" page="1" pageScale="1" pageWidth="827" pageHeight="1169" math="0" shadow="0">
      <root>
        <mxCell id="0" />
        <mxCell id="1" parent="0" />
      </root>
    </mxGraphModel>
  </diagram>
  <diagram id="fPHtTXjR4B-xJRR4z4Qc" name="ERD - Entity Relations Diagram">
    <mxGraphModel dx="1098" dy="988" grid="1" gridSize="10" guides="1" tooltips="1" connect="1" arrows="1" fold="1" page="1" pageScale="1" pageWidth="827" pageHeight="1169" math="0" shadow="0">
      <root>
        <mxCell id="0" />
        <mxCell id="1" parent="0" />
      </root>
    </mxGraphModel>
  </diagram>
</mxfile>
